<svg width="40" height="40" viewBox="0 0 40 40" fill="none" xmlns="http://www.w3.org/2000/svg">
<path fill-rule="evenodd" clip-rule="evenodd" d="M40 19.9577C40 21.9028 39.7466 23.7632 39.2397 25.4968C38.226 29.0486 36.283 32.1776 33.6219 34.63C31.7635 36.3636 29.5248 37.759 27.075 38.6892C24.8786 39.5349 22.471 40 19.9789 40C19.641 40 19.2608 40 18.9229 39.9577C18.416 39.9154 17.8669 39.8732 17.3601 39.8309C13.5164 39.3235 9.96832 37.7167 7.13833 35.3066C6.08236 34.4186 5.11088 33.4038 4.22386 32.3044C3.59028 31.5011 2.99894 30.6131 2.49208 29.6829C2.36536 29.4715 2.23865 29.2178 2.11193 29.0063C1.98522 28.7526 1.85851 28.5412 1.77403 28.2875C1.43612 27.5264 1.14045 26.723 0.887014 25.9197C0.71806 25.3277 0.549102 24.7357 0.422386 24.1438C0.337909 23.7209 0.253432 23.2981 0.211193 22.833C0.0844773 21.9028 0 20.9725 0 20C0 19.4503 5.15483e-06 18.9006 0.0844824 18.351C0.126721 18.0127 0.126716 17.6744 0.211193 17.3362C0.464625 15.3488 1.01372 13.4884 1.81626 11.7548C2.1964 10.9091 2.66103 10.0634 3.1679 9.30233C4.01267 7.99154 4.98416 6.76533 6.1246 5.66596C9.71489 2.15645 14.6568 0 20.0634 0C20.2745 0 20.4857 0 20.6969 0C20.9081 0 21.1616 9.67158e-07 21.3728 0.0422843C22.5132 0.126851 23.6536 0.295984 24.7096 0.549684C25.3432 0.718817 25.9768 0.88795 26.5681 1.09937C26.9905 1.22622 27.3706 1.39535 27.793 1.56448C28.0887 1.69133 28.3844 1.81818 28.68 1.94503C28.7223 1.98732 28.7645 1.98732 28.849 2.0296C30.792 2.95983 32.566 4.22833 34.0866 5.75053C34.2978 5.96194 34.509 6.17336 34.7202 6.38478C34.8469 6.55391 35.0158 6.68076 35.1426 6.8499C35.396 7.1036 35.6072 7.39958 35.8184 7.65328C36.6209 8.66808 37.2967 9.76744 37.8881 10.9091C38.5639 12.2622 39.113 13.6998 39.4931 15.1797C39.7888 16.7019 40 18.3087 40 19.9577Z" fill="url(#paint0_radial_25_456)"/>
<path fill-rule="evenodd" clip-rule="evenodd" d="M28.7645 1.94482C28.68 1.94482 28.6378 1.94482 28.5533 1.9871C28.3421 2.02938 28.1309 1.9871 27.9197 1.94482C27.7508 1.90253 27.6663 1.81797 27.4551 1.81797C27.2017 1.77569 26.9905 1.69112 26.7371 1.64883C26.4836 1.60655 26.2724 1.52198 26.019 1.43742C25.8078 1.35285 25.7233 1.39513 25.5544 1.43742C25.3854 1.4797 25.2587 1.39513 25.0898 1.35285C24.9208 1.26828 24.7096 1.26828 24.5406 1.226C24.0338 1.14144 23.5269 0.972301 23.0201 0.845451C22.7244 0.760885 22.4287 0.760886 22.0908 0.760886C21.8374 0.760886 21.6262 0.845451 21.3728 0.845451C21.2038 0.845451 21.0771 0.803169 20.9081 0.803169C20.7392 0.760885 20.5702 0.803169 20.4013 0.803169C20.1478 0.760885 20.0211 0.718602 19.7677 0.803169C19.5565 0.845452 19.4298 0.845452 19.2186 0.887736C19.0074 0.887736 18.754 0.972302 18.5428 1.01459C18.1626 1.09915 17.7402 1.18372 17.3601 1.18372C17.1067 1.18372 16.7687 1.09915 16.5576 1.18372C16.4308 1.226 16.3464 1.39513 16.2196 1.4797C16.0084 1.69112 15.7973 1.86025 15.6283 2.07167C15.4593 2.28308 15.2904 2.53678 15.2904 2.83277C15.2904 3.08647 15.4171 3.38245 15.5438 3.59387C15.6705 3.84757 15.7128 4.05898 15.4593 4.22812C15.1637 4.43953 14.7835 4.60866 14.4456 4.73551C14.1922 4.82008 13.981 4.86237 13.812 4.69323C13.7276 4.65095 13.6853 4.5241 13.6008 4.43953C13.5164 4.39725 13.3897 4.43953 13.3052 4.48182C13.0517 4.56638 12.7983 4.65095 12.5449 4.69323C12.3759 4.73552 12.2492 4.82008 12.0803 4.82008C11.9113 4.86237 11.7846 4.73552 11.5734 4.7778C11.32 4.82008 11.0243 4.94693 10.7709 4.94693C10.5597 4.94693 10.3062 4.86237 10.1373 4.7778C10.0528 4.73552 10.0106 4.65095 9.88384 4.69323C9.79936 4.69323 9.67264 4.82008 9.63041 4.90465C9.54593 4.98922 9.54593 5.11607 9.46145 5.20063C9.37698 5.32748 9.33474 5.41205 9.25026 5.5389C9.12354 5.75031 8.99683 5.96173 8.87012 6.17315C8.78564 6.3 8.70116 6.51142 8.57444 6.63826C8.5322 6.72283 8.4055 6.76511 8.32102 6.8074C8.10983 6.93425 7.89863 7.10338 7.68744 7.23023C7.30729 7.52621 6.92714 7.86448 6.54699 8.16046C6.25132 8.37188 5.82893 8.49873 5.49102 8.66786C5.27983 8.75243 5.06864 8.83699 4.85744 8.92156C4.77297 8.96384 4.64625 8.96385 4.60401 9.04841C4.51953 9.13298 4.4773 9.21754 4.43506 9.34439C4.2661 9.55581 4.0549 9.80951 3.92819 10.0632C3.84371 10.2323 3.80147 10.3592 3.717 10.5283C3.63252 10.7397 3.50581 10.9512 3.46357 11.2049C3.29462 11.67 3.29461 12.1774 3.08342 12.6425C2.99894 12.8962 2.82999 13.1499 2.70327 13.4036C2.49208 13.8264 2.44985 14.3338 2.40761 14.7989C2.36537 15.0526 2.4076 15.3909 2.44984 15.6446C2.49207 15.9406 2.49208 16.2366 2.49208 16.5326C2.49208 16.8285 2.28089 17.1668 2.11193 17.3782C1.94298 17.5896 1.6473 17.6742 1.43611 17.8856C1.26716 18.0548 1.05596 18.2239 0.971484 18.4776C0.929245 18.5622 0.971484 18.689 0.971484 18.8159C0.929245 19.0696 0.844773 19.281 0.844773 19.5347C0.802534 19.8307 0.802532 20.1266 0.802532 20.4649C0.802532 20.634 0.802532 20.7609 0.802532 20.93C0.802532 21.0991 0.844775 21.226 0.887014 21.3528C0.887014 21.4374 0.887014 21.5643 0.887014 21.6488C0.887014 21.7757 0.971484 21.9025 0.971484 21.9871C1.05596 22.2831 1.09821 22.5368 1.14045 22.8328C1.18269 23.0865 1.3094 23.3402 1.35164 23.5939C1.47836 23.9321 1.52059 24.2704 1.60506 24.6509C1.6473 24.9046 1.64731 25.2006 1.68955 25.4543C1.73178 25.6657 1.77403 25.8772 1.77403 26.0886C1.77403 26.4268 1.68955 26.7228 1.68955 27.0611C1.68955 27.6108 1.90073 28.1605 2.02745 28.7101C2.06969 28.8793 2.11193 29.0061 2.15417 29.1753C0.760298 26.4691 0 23.3824 0 20.1266C0 16.152 1.14044 12.4734 3.12566 9.38668C3.97043 8.0759 4.94192 6.84968 6.08236 5.7926C9.67265 2.28309 14.6146 0.126637 20.0211 0.126637C20.4435 0.126637 20.9081 0.126636 21.3305 0.168919C23.9493 0.126636 26.4836 0.845452 28.7645 1.94482Z" fill="url(#paint1_linear_25_456)"/>
<path fill-rule="evenodd" clip-rule="evenodd" d="M12.9252 17.0401C12.6718 17.5052 11.996 18.3086 12.2071 18.9851C12.2916 19.2811 12.5028 19.5348 12.6295 19.8308C12.9674 20.5496 13.6433 21.2684 14.488 20.761C15.4595 20.1691 15.0371 19.112 14.6148 18.3509C14.4458 18.0549 14.2346 17.7166 13.9389 17.5475C13.77 17.4629 13.5166 17.3784 13.3476 17.3361C13.0097 17.2092 13.2209 17.0401 12.9252 17.0401Z" fill="#FF9F84"/>
<path fill-rule="evenodd" clip-rule="evenodd" d="M15.0794 24.1014C15.1216 23.9746 15.1638 23.5517 15.2905 23.3826C15.375 23.2558 15.5862 23.1712 15.7552 23.0866C16.0931 22.9598 16.4732 23.0021 16.7267 23.2558C17.2335 23.6786 17.1913 24.3551 16.7267 24.8202C16.5155 25.0317 16.2198 25.2431 15.9241 25.2431C15.7552 25.2431 15.5862 25.2854 15.4595 25.2008C15.2905 25.1162 15.1638 24.9471 15.1216 24.778C15.0371 24.482 15.0794 24.2706 15.2483 24.0169L15.0794 24.1014Z" fill="#FF9F84"/>
<path fill-rule="evenodd" clip-rule="evenodd" d="M11.4046 23.89C11.4046 24.1014 11.2779 24.6511 11.6158 24.7357C11.7848 24.7779 11.9537 24.5665 11.9537 24.4397C11.996 24.3128 11.9537 24.1014 11.9115 23.9746C11.827 23.8054 11.658 23.6786 11.5313 23.8477H11.4046V23.89Z" fill="#FF9F84"/>
<path fill-rule="evenodd" clip-rule="evenodd" d="M2.87231 19.9999C2.91455 20.3382 2.91456 20.8879 3.12575 21.1839C3.21023 21.3107 3.29471 21.4376 3.46367 21.4798C3.63262 21.5221 3.71709 21.4376 3.80157 21.3107C3.97052 21.0993 3.97052 20.9724 3.97052 20.7187C3.97052 20.5073 3.88605 20.2536 3.80157 20.0422C3.71709 19.9154 3.59037 19.7885 3.50589 19.7039C3.42142 19.6194 3.33694 19.5771 3.16799 19.5771C2.9568 19.5771 2.99904 19.8308 2.9568 19.9999H2.87231Z" fill="#FF9F84"/>
<path fill-rule="evenodd" clip-rule="evenodd" d="M32.524 18.3509C32.524 18.3086 32.5663 17.7166 32.693 17.5898C32.7353 17.5475 32.862 17.5052 32.9042 17.4629C33.0732 17.3784 33.2843 17.3361 33.4955 17.4206C33.749 17.5475 34.0024 17.928 33.9179 18.224C33.8334 18.6046 33.4111 18.8583 33.0731 18.8583C32.693 18.8583 32.3973 18.3932 32.6085 18.0549L32.524 18.3509Z" fill="#FF9F84"/>
<path fill-rule="evenodd" clip-rule="evenodd" d="M11.9537 23.0866C11.9537 23.0866 11.996 22.7907 12.0382 22.7061C12.0805 22.6638 12.1227 22.6638 12.1649 22.6638C12.2494 22.6215 12.3761 22.6215 12.4606 22.6638C12.5873 22.7484 12.714 22.9175 12.6718 23.0866C12.6296 23.2558 12.4184 23.4249 12.2494 23.4249C12.0805 23.4249 11.9115 23.1712 11.996 23.0021L11.9537 23.0866Z" fill="#FF9F84"/>
<path fill-rule="evenodd" clip-rule="evenodd" d="M21.0773 26.7652C21.0773 26.7652 21.1195 26.4692 21.1618 26.3846C21.204 26.3423 21.2462 26.3423 21.2885 26.3423C21.3729 26.3 21.4997 26.3 21.5841 26.3423C21.7109 26.4269 21.8376 26.596 21.7953 26.7652C21.7531 26.9343 21.5419 27.1034 21.3729 27.1034C21.204 27.1034 21.035 26.8497 21.1195 26.6806L21.0773 26.7652Z" fill="#FF9F84"/>
<path fill-rule="evenodd" clip-rule="evenodd" d="M27.2441 10.6131C27.2441 10.6131 27.2864 10.3171 27.3286 10.2325C27.3709 10.1902 27.4131 10.1902 27.4553 10.1902C27.5398 10.148 27.6665 10.148 27.751 10.1902C27.8777 10.2748 28.0044 10.4439 27.9622 10.6131C27.92 10.7822 27.7088 10.9513 27.5398 10.9513C27.3709 10.9513 27.2019 10.6976 27.2864 10.5285L27.2441 10.6131Z" fill="#FF9F84"/>
<path fill-rule="evenodd" clip-rule="evenodd" d="M14.6991 34.038C14.6991 34.038 14.7413 33.742 14.7836 33.6574C14.8258 33.6151 14.8681 33.6151 14.9103 33.6151C14.9948 33.5729 15.1215 33.5729 15.206 33.6151C15.3327 33.6997 15.4594 33.8688 15.4172 34.038C15.3749 34.2071 15.1637 34.3762 14.9948 34.3762C14.8258 34.3762 14.6569 34.1225 14.7413 33.9534L14.6991 34.038Z" fill="#FF9F84"/>
<path fill-rule="evenodd" clip-rule="evenodd" d="M31.2146 23.3402C30.9189 23.5517 30.7077 23.6362 30.5387 23.8899C30.412 24.1013 30.2431 24.2705 30.1586 24.5242C30.0741 24.6933 29.9896 24.9893 29.9896 25.1584C30.0319 25.6658 30.6654 25.243 30.8766 25.0739C31.1301 24.8624 31.3835 24.5665 31.3835 24.2282C31.3835 24.1013 31.3835 23.9322 31.3413 23.8054C31.299 23.7631 31.299 23.6785 31.2568 23.6362C31.1723 23.5517 31.1301 23.5517 31.2146 23.3402Z" fill="#FF9F84"/>
<path fill-rule="evenodd" clip-rule="evenodd" d="M37.5925 25.6659C37.6348 25.4545 37.5081 26.2579 37.5503 26.3002C37.6348 26.3002 37.7193 26.3002 37.8037 26.3002C37.8882 26.3002 37.9304 26.2156 38.0149 26.1733C38.1839 26.0465 38.3106 25.9619 38.3106 25.7505C38.3106 25.5813 38.2684 25.4545 38.0994 25.3699C38.0149 25.3276 37.9727 25.3276 37.8882 25.3276C37.7193 25.3699 37.5925 25.5391 37.5081 25.7082L37.5925 25.6659Z" fill="#FF9F84"/>
<path fill-rule="evenodd" clip-rule="evenodd" d="M20.0213 34.3762C20.1902 34.3762 19.5989 34.3762 19.5989 34.3762C19.5989 34.4185 19.5989 34.5031 19.5989 34.5453C19.5989 34.6299 19.6411 34.6299 19.6834 34.6722C19.7678 34.7568 19.8523 34.8413 19.979 34.8413C20.1057 34.8413 20.1902 34.799 20.1902 34.6722C20.1902 34.6299 20.2325 34.5876 20.1902 34.5453C20.148 34.4185 20.0213 34.3339 19.9368 34.3339L20.0213 34.3762Z" fill="#FFEF84"/>
<path fill-rule="evenodd" clip-rule="evenodd" d="M19.7257 32.6427C19.768 32.4313 19.6412 33.2346 19.6835 33.2769C19.768 33.2769 19.8524 33.2769 19.9369 33.2769C20.0214 33.2769 20.0636 33.1924 20.1481 33.1501C20.3171 33.0232 20.4438 32.9387 20.4438 32.7272C20.4438 32.5581 20.4015 32.4313 20.2326 32.3467C20.1481 32.3044 20.1059 32.3044 20.0214 32.3044C19.8524 32.3467 19.7257 32.5158 19.6412 32.685L19.7257 32.6427Z" fill="#FF9F84"/>
<g opacity="0.25">
<path opacity="0.4" fill-rule="evenodd" clip-rule="evenodd" d="M5.37288 7.79068C4.78154 8.5095 4.27468 9.18603 3.89453 10.0317C3.55662 10.7505 3.42991 11.5962 3.30319 12.3996C3.21872 12.8647 3.17648 13.3298 3.092 13.8372C3.04976 14.26 2.92305 14.6829 2.96529 15.1057C3.04977 15.6977 3.092 16.3319 3.38767 16.8393C3.68335 17.389 3.97901 17.8964 4.35916 18.4038C4.73931 18.8689 5.20393 19.1226 5.83751 19.1649C6.17542 19.2072 6.51333 19.1226 6.85124 19.1649C7.31586 19.2072 7.78049 19.2917 8.24512 19.3763C9.17437 19.5454 10.2303 19.5454 10.9061 18.7843C11.4553 18.1501 11.7087 17.389 12.0466 16.6279C12.4267 15.8245 12.8914 15.1903 13.5672 14.6406C14.074 14.26 14.5387 13.7949 15.0033 13.3721C15.2145 13.2029 15.3412 12.9915 15.5946 12.8224C15.8481 12.6955 15.9748 12.5264 16.186 12.315C16.3972 12.1459 16.6084 12.019 16.7773 11.8076C17.073 11.4693 17.2842 11.0465 17.4109 10.6659C17.5799 10.2431 17.6221 9.82028 17.7066 9.35516C17.7488 8.93233 17.6221 8.5095 17.4954 8.08666C17.2419 7.32557 16.5661 6.81817 15.9748 6.35305C15.2145 5.76108 14.2852 5.50738 13.356 5.29597C12.5112 5.12683 11.4553 5.08455 10.5682 5.25369C9.63899 5.42282 8.70973 5.54967 7.86496 5.93022C7.23138 6.2262 6.85124 6.60675 6.34438 7.07187C6.09095 7.28328 5.79527 7.45242 5.54184 7.70612C5.24617 8.04438 4.9505 8.42493 5.37288 7.79068Z" fill="black"/>
<path opacity="0.4" fill-rule="evenodd" clip-rule="evenodd" d="M14.4119 4.06976C14.5386 3.85834 14.6653 3.52007 14.8343 3.35094C14.9187 3.22409 15.0455 3.13952 15.1722 3.05496C15.5101 2.75897 15.8902 2.54756 16.3126 2.42071C16.566 2.33614 16.8195 2.33614 17.0307 2.42071C17.2841 2.46299 17.7065 2.63212 17.8754 2.80126C18.2133 3.13952 18.0022 3.68921 17.8754 4.06976C17.791 4.45031 17.6643 4.83086 17.3263 5.04227C17.1151 5.21141 16.8195 5.33826 16.566 5.38054C16.4393 5.42282 16.2704 5.42282 16.1014 5.42282C15.9747 5.42282 15.848 5.46511 15.7635 5.46511C15.4678 5.46511 15.0455 5.25369 14.961 4.99999C14.9187 4.87314 14.8765 4.70401 14.792 4.57716C14.7498 4.45031 14.7075 4.36574 14.6653 4.23889C14.5808 4.02747 14.5386 3.81606 14.4119 4.06976Z" fill="black"/>
<path opacity="0.4" fill-rule="evenodd" clip-rule="evenodd" d="M17.7487 6.18393C17.6642 6.39535 17.6219 6.64905 17.6219 6.86046C17.7064 6.90275 17.7487 7.0296 17.8754 7.11416C17.9599 7.15645 18.0866 7.15645 18.2133 7.15645C18.4245 7.15645 18.5934 7.15645 18.6357 6.90275C18.6779 6.69133 18.4667 6.5222 18.2978 6.39535C18.1711 6.31078 17.9599 6.09936 17.8331 6.2685L17.7487 6.18393Z" fill="black"/>
<path opacity="0.4" fill-rule="evenodd" clip-rule="evenodd" d="M20.4943 9.43974C20.2408 9.60887 19.9452 9.778 19.6917 9.98942C19.3961 10.2431 19.1426 10.5391 18.8892 10.8774C18.5935 11.2579 18.2134 11.6808 18.2979 12.2304C18.3823 12.7378 18.5513 13.2029 18.9314 13.5412C19.3961 13.964 20.1141 13.964 20.6632 14.2177C21.1278 14.4292 21.4235 14.8943 21.6347 15.3594C21.9726 16.0359 22.7329 16.1628 23.4087 16.2896C23.8311 16.3742 24.2958 16.4165 24.7181 16.501C25.3095 16.5856 25.9008 16.6702 26.4922 16.7547C27.5904 16.8393 28.6886 17.093 29.7868 17.0084C30.9695 16.9239 32.0254 16.501 32.9547 15.8245C33.7572 15.2748 34.5175 14.26 34.7287 13.2875C34.9399 12.2727 34.602 11.1311 34.1373 10.2008C33.5038 9.0169 32.7435 7.95982 31.8987 6.90274C31.4341 6.31077 30.9272 5.80337 30.4204 5.25369C29.998 4.74629 29.5756 4.32346 29.1109 3.90062C28.0127 2.97039 26.6611 2.20929 25.225 2.12473C24.6759 2.08244 24.1268 2.16701 23.5777 2.37843C23.1131 2.54756 22.7751 2.80126 22.4372 3.18181C21.5925 4.06976 21.1278 5.21141 20.7477 6.35306C20.5787 6.90274 20.4098 7.4947 20.4943 8.04439C20.4943 8.21352 20.621 8.34037 20.621 8.5095C20.621 8.67864 20.621 8.80549 20.621 8.97462C20.621 9.05919 20.621 9.14375 20.5787 9.22832C20.5365 9.31289 20.4098 9.43974 20.4943 9.43974Z" fill="black"/>
<path opacity="0.4" fill-rule="evenodd" clip-rule="evenodd" d="M15.9325 13.4144C15.3834 13.7526 14.792 14.0063 14.3696 14.5137C14.2852 14.5983 14.2007 14.7251 14.2429 14.852C14.2852 14.9788 14.4541 15.0634 14.5808 15.1057C15.0032 15.2748 15.5101 15.3594 15.9747 15.2748C16.3971 15.1903 16.904 14.9366 17.1152 14.556C17.4108 14.0909 17.0729 13.3298 16.4816 13.3721C16.3971 13.3721 16.3126 13.4144 16.2281 13.4144C16.1437 13.4144 16.1014 13.4144 16.017 13.4144C15.9325 13.4144 15.9325 13.4144 15.848 13.4566C15.7635 13.5412 15.679 13.6258 15.9325 13.4144Z" fill="black"/>
<path opacity="0.4" fill-rule="evenodd" clip-rule="evenodd" d="M4.35907 21.1522C4.14788 21.3636 3.89445 21.5327 3.76773 21.7864C3.64102 22.0401 3.55654 22.2938 3.5143 22.5898C3.47206 22.8435 3.38758 23.0972 3.47206 23.3509C3.5143 23.5623 3.64102 23.7738 3.72549 24.0275C3.80997 24.3234 3.93669 24.5771 3.97893 24.8731C4.0634 25.2537 4.19012 25.5497 4.35907 25.8879C4.52803 26.2262 4.69698 26.5222 4.90817 26.8182C5.11936 27.1564 5.33056 27.3678 5.58399 27.6638C6.51324 28.5941 7.61144 29.6089 8.96308 29.778C9.6389 29.8626 10.357 29.6934 10.8638 29.186C11.4129 28.6363 11.7508 27.8752 11.8775 27.1141C11.962 26.4799 11.9198 25.8034 11.5819 25.2537C11.2862 24.7886 10.9905 24.3234 10.6526 23.9429C10.3992 23.6892 10.1458 23.4778 9.8501 23.2241C9.59666 22.9704 9.34323 22.7167 9.04756 22.5475C8.5407 22.167 8.07608 21.7864 7.56921 21.4482C7.10459 21.1099 6.59772 20.7716 6.04862 20.6448C5.66847 20.5602 5.24609 20.4757 4.86594 20.6448C4.69699 20.7294 4.57026 20.7716 4.48578 20.8985C4.44354 20.9831 4.35907 21.1099 4.35907 21.1945C4.2746 21.1099 4.23236 21.1099 4.35907 21.1522Z" fill="black"/>
<path opacity="0.4" fill-rule="evenodd" clip-rule="evenodd" d="M7.90705 20.2643C7.90705 20.4334 7.94929 20.6025 7.94929 20.7294C7.94929 20.7717 7.99153 20.8139 7.99153 20.8985C8.03377 20.9408 8.16048 20.9408 8.20272 20.9408C8.37168 20.9408 8.54063 20.8562 8.66735 20.7717C8.87854 20.6025 8.96301 20.2643 8.75182 20.0951C8.6251 19.9683 8.41392 19.8837 8.20272 19.926C8.11825 19.9683 7.65362 20.1797 7.82258 20.3488L7.90705 20.2643Z" fill="black"/>
<path opacity="0.4" fill-rule="evenodd" clip-rule="evenodd" d="M34.6864 15.8668C34.7709 15.5285 34.7709 15.2748 34.9821 15.0211C35.1933 14.8097 35.4045 14.556 35.5734 14.3446C35.9113 13.9218 36.1225 13.3721 36.2492 12.8647C36.376 12.3996 36.2492 11.9345 36.4604 11.4693C36.5027 11.3425 36.5871 11.1734 36.6716 11.0888C36.7561 11.0465 37.0095 11.0888 37.094 11.1311C37.1785 11.1734 37.3052 11.3002 37.3897 11.3848C37.5164 11.5116 37.6431 11.6385 37.8121 11.8076C38.4879 12.5264 38.868 13.6258 38.8258 14.5983C38.8258 15.1903 38.7413 15.6977 38.5724 16.2474C38.4879 16.4588 38.4034 16.6702 38.2767 16.8816C38.15 17.1353 37.9388 17.2622 37.7276 17.4313C37.0518 17.8541 36.038 17.7273 35.4467 17.1776C35.2355 16.9662 35.151 16.7125 34.9821 16.4588C34.8554 16.2896 34.7709 16.1205 34.7287 15.8668C34.7287 15.8245 34.7286 15.8245 34.6864 15.8668Z" fill="black"/>
<path opacity="0.4" fill-rule="evenodd" clip-rule="evenodd" d="M34.6864 8.34038C34.8131 8.72093 34.8554 9.14376 35.2778 9.35518C35.3622 9.39746 35.489 9.43975 35.5734 9.43975C35.6579 9.43975 35.7424 9.39746 35.8268 9.3129C36.2492 9.01691 35.9958 8.2981 35.7424 7.95983C35.5734 7.7907 35.3622 7.70613 35.151 7.62156C35.0666 7.57928 35.0666 7.57928 34.9821 7.62156C34.8976 7.66385 34.8554 7.66385 34.8131 7.74842C34.7709 7.7907 34.7709 7.91755 34.7709 7.95983C34.7709 8.0444 34.7287 8.08668 34.7287 8.12897C34.6864 8.25582 34.7286 8.38266 34.7709 8.50951L34.6864 8.34038Z" fill="black"/>
<path opacity="0.4" fill-rule="evenodd" clip-rule="evenodd" d="M31.5607 24.6194C31.4762 24.8731 31.3917 25.1691 31.265 25.4228C31.1383 25.7188 31.0116 25.9725 30.8849 26.2685C30.5892 26.9873 30.4202 27.7907 30.2091 28.5518C29.9979 29.3552 29.8711 30.2008 29.7867 31.0042C29.7444 31.427 29.6599 31.8499 29.7022 32.2727C29.7022 32.5687 29.7022 32.9492 29.8289 33.2452C29.9134 33.4144 30.0823 33.7103 30.2513 33.7949C30.5047 33.9218 30.8004 33.7103 31.0116 33.5835C31.8141 33.1607 32.5322 32.5687 33.1658 31.9344C33.7993 31.3002 34.4329 30.7082 34.982 29.9894C35.2354 29.6511 35.4889 29.3552 35.7001 28.9746C35.869 28.6786 35.9957 28.3404 36.1225 28.0444C36.2492 27.7484 36.3759 27.4524 36.5026 27.1564C36.6716 26.8182 36.7983 26.4376 36.925 26.0571C37.1362 25.3382 37.3474 24.6194 37.0939 23.9006C36.8828 23.2664 36.3759 22.8012 35.7001 22.6744C35.3622 22.5898 34.9398 22.5053 34.6019 22.5053C34.2639 22.5476 33.8838 22.6321 33.5459 22.759C33.2502 22.8858 32.9546 23.0127 32.7011 23.1818C32.5744 23.2664 32.4477 23.3932 32.321 23.5201C32.1098 23.7315 31.9408 23.9429 31.7719 24.1966C31.6874 24.3234 31.6452 24.408 31.5184 24.4926C31.4762 24.704 31.3917 24.9154 31.5607 24.6194Z" fill="black"/>
<path opacity="0.4" fill-rule="evenodd" clip-rule="evenodd" d="M28.3929 33.8795C27.9705 34.0486 27.6326 34.1755 27.2524 34.4715C26.83 34.8097 26.4076 35.1057 26.112 35.5708C25.9853 35.74 25.774 35.9937 25.943 36.2051C26.0697 36.3742 26.3232 36.3742 26.5344 36.3742C26.83 36.3742 27.1257 36.3319 27.3791 36.2051C27.6326 36.1205 27.8438 35.9514 28.0972 35.8668C28.3506 35.7822 28.6885 35.6131 28.8575 35.4017C28.942 35.2748 29.0264 35.1057 29.1109 34.9789C29.1954 34.852 29.1954 34.8097 29.1954 34.6406C29.1954 34.4715 29.0687 34.26 28.9842 34.1755C28.8997 34.0909 28.6885 33.9641 28.5618 34.0063C28.4773 34.0063 28.3929 34.0486 28.3084 34.0909C28.1394 34.0909 28.0127 34.3023 28.3929 33.8795Z" fill="black"/>
<path opacity="0.4" fill-rule="evenodd" clip-rule="evenodd" d="M27.886 31.4271C27.8015 31.0888 27.717 30.8774 27.717 30.5391C27.7593 30.2431 27.7593 29.9894 27.886 29.7357C27.9705 29.6089 28.1394 29.2706 28.2661 29.2283C28.3084 29.2283 28.4351 29.2283 28.4773 29.2283C28.6885 29.2706 28.8153 29.5243 28.8575 29.7357C28.942 30.0317 28.8575 30.37 28.8997 30.7082C28.8997 30.9619 28.8575 31.1734 28.773 31.3848C28.6885 31.5539 28.5618 31.5539 28.3929 31.5539C28.2239 31.5539 28.1394 31.5116 28.0127 31.3848C27.9705 31.3425 27.886 31.3425 27.8438 31.3002C27.7593 31.2156 27.7593 31.1311 27.886 31.4271Z" fill="black"/>
<path opacity="0.4" fill-rule="evenodd" clip-rule="evenodd" d="M27.5059 18.742C27.4636 18.9535 27.4636 19.2072 27.4636 19.4186C27.5481 19.4186 27.6326 19.5877 27.717 19.5877C27.886 19.63 28.0127 19.5454 28.1394 19.4609C28.3929 19.2494 28.4774 18.8689 28.3929 18.5729C28.3506 18.2769 28.0127 18.2347 27.7593 18.2769C27.6748 18.2769 27.5481 18.3192 27.5059 18.3615C27.3369 18.4883 27.3369 18.6575 27.3369 18.8266L27.5059 18.742Z" fill="black"/>
<path opacity="0.4" fill-rule="evenodd" clip-rule="evenodd" d="M8.41407 32.5264C8.54079 32.2727 8.66751 32.019 8.83646 31.8076C9.04765 31.5539 9.25885 31.3425 9.47004 31.1311C9.76571 30.8774 10.0614 30.6237 10.3571 30.4122C10.6527 30.2008 10.9062 29.9894 11.2018 29.778C11.7087 29.4397 12.2578 29.2283 12.8491 29.0169C13.3138 28.8478 13.8206 28.8055 14.3275 28.89C14.8343 28.9746 15.3412 29.2706 15.6791 29.6089C16.017 29.9471 16.3972 30.37 16.6084 30.7928C17.073 31.6807 16.8618 32.6955 16.5661 33.5835C16.4394 34.0063 16.1437 34.4714 15.8058 34.7674C15.5946 34.9366 15.3834 35.0211 15.13 35.0634C14.8766 35.1057 14.5387 35.2325 14.2852 35.2325C13.0603 35.4017 11.8354 35.3171 10.695 34.8943C10.2303 34.7251 9.80794 34.5137 9.34332 34.3023C9.00541 34.1332 8.70974 33.9218 8.49854 33.6258C8.32959 33.4144 8.20288 33.1184 8.20288 32.8224C8.20288 32.6955 8.24511 32.5687 8.28735 32.4418C8.37183 32.5264 8.41407 32.4841 8.41407 32.5264Z" fill="black"/>
<path opacity="0.4" fill-rule="evenodd" clip-rule="evenodd" d="M17.453 33.0761C17.3685 33.2875 17.3263 33.5412 17.2841 33.7526C17.3685 33.7949 17.3685 33.9218 17.4108 34.0063C17.4952 34.0909 17.5375 34.1332 17.6642 34.1332C17.7909 34.1332 17.9176 34.1332 18.0021 34.1332C18.1711 34.0909 18.2133 34.0486 18.2978 33.9218C18.3823 33.7949 18.4245 33.7103 18.4245 33.5412C18.4245 33.4144 18.3823 33.2875 18.2978 33.2029C18.2555 33.1184 18.1711 33.0338 18.0866 32.9915C17.9176 32.8647 17.7909 32.9492 17.6642 33.0338L17.453 33.0761Z" fill="black"/>
<path opacity="0.4" fill-rule="evenodd" clip-rule="evenodd" d="M37.2208 22.6321C37.0518 22.5053 36.8829 22.3362 36.7562 22.1247C36.7562 22.0402 36.7562 21.9556 36.7562 21.871C36.7139 21.6596 36.6717 21.4905 36.7139 21.2791C36.7984 20.7717 37.2208 20.4334 37.7276 20.3911C38.0656 20.3488 38.5302 20.6025 38.6991 20.8985C38.8681 21.1945 38.9526 21.5328 38.9526 21.871C38.9526 22.1247 38.9103 22.463 38.7414 22.6744C38.6147 22.8435 38.4035 22.8436 38.2345 22.8436C38.0233 22.8436 37.8121 22.8013 37.6432 22.759C37.4742 22.7167 37.3052 22.6321 37.2208 22.6321Z" fill="black"/>
</g>
<defs>
<radialGradient id="paint0_radial_25_456" cx="0" cy="0" r="1" gradientUnits="userSpaceOnUse" gradientTransform="translate(7.58957 10.592) scale(32.1442 32.1782)">
<stop offset="0.00558659" stop-color="#DE6863"/>
<stop offset="0.2018" stop-color="#DB6563"/>
<stop offset="0.3542" stop-color="#D15D62"/>
<stop offset="0.4919" stop-color="#C14F60"/>
<stop offset="0.6209" stop-color="#A93B5E"/>
<stop offset="0.7437" stop-color="#8B225B"/>
<stop offset="0.8606" stop-color="#670357"/>
<stop offset="0.8715" stop-color="#630057"/>
</radialGradient>
<linearGradient id="paint1_linear_25_456" x1="-0.0284266" y1="14.4657" x2="28.7571" y2="14.4657" gradientUnits="userSpaceOnUse">
<stop offset="0.0111732" stop-color="#FF7D85"/>
<stop offset="0.2983" stop-color="#FC7B84"/>
<stop offset="0.5089" stop-color="#F3757F"/>
<stop offset="0.695" stop-color="#E36B77"/>
<stop offset="0.8659" stop-color="#CC5C6C"/>
<stop offset="1" stop-color="#B54D61"/>
</linearGradient>
</defs>
</svg>
