<svg width="40" height="40" viewBox="0 0 40 40" fill="none" xmlns="http://www.w3.org/2000/svg">
<path fill-rule="evenodd" clip-rule="evenodd" d="M40 24.5714L39.8389 25.102C39.8389 25.1428 39.8389 25.1428 39.7986 25.1837C39.3958 26.5714 38.8721 27.8775 38.2276 29.102C37.1803 31.102 35.7704 32.9388 34.1591 34.4898C32.2659 36.2857 30.0101 37.7143 27.5126 38.6531C25.2568 39.5102 22.8399 40 20.3021 40C19.9396 40 19.577 40 19.2145 39.9592C18.6908 39.9184 18.1672 39.8776 17.6435 39.7959C14.2195 39.3469 11.0775 38.0408 8.41893 36.0816C8.17724 35.8775 7.93555 35.7143 7.69386 35.5102C8.17724 35.102 9.144 35.0612 9.144 35.0612L7.77442 33.9592L4.35045 32.0816C3.70594 31.2245 3.10171 30.3265 2.57804 29.3877C2.4572 29.1428 2.33635 28.9388 2.21551 28.6939C2.21551 28.6939 2.21551 28.6939 2.21551 28.6531C2.09466 28.4082 1.97382 28.1632 1.85297 27.9184C1.49044 27.1428 1.20845 26.3265 0.926481 25.4694C0.725071 24.8571 0.56395 24.2449 0.443104 23.6326C0.36254 23.1837 0.281974 22.7347 0.20141 22.2857C0.080564 21.3469 0 20.3673 0 19.3877C0 19.1428 0 18.9388 0 18.6939C0 18.3673 0.0402844 18 0.0402844 17.6734C0.0805664 17.3469 0.120841 17.0204 0.120841 16.6938C0.120841 16.653 0.120841 16.653 0.120841 16.6122C0.201405 16.1632 0.241689 15.7143 0.362535 15.2653C0.483381 14.6122 0.644514 14 0.845924 13.3877C1.08762 12.5306 1.40987 11.6734 1.7724 10.8979C2.13494 10.1224 2.53776 9.3469 2.98086 8.6122C4.35045 7.87751 5.23666 7.46935 5.23666 7.46935C5.23666 7.46935 28.8822 2.73465 29.2447 2.32648C29.6073 1.91832 31.3797 2.16321 31.3797 2.16321C32.5076 2.89791 33.5146 3.75505 34.4814 4.69383C34.7231 4.89791 34.9245 5.14281 35.1259 5.34689C35.2467 5.51016 35.4079 5.67343 35.5287 5.83669C35.7704 6.12241 35.9718 6.36731 36.2135 6.65302C37.0191 7.71425 37.7442 8.81628 38.3484 9.99996C38.5901 10.4489 38.7915 10.9387 38.993 11.3877C40.8056 18.6122 38.5498 24.7755 38.5498 24.7755C39.1541 24.653 39.6375 24.6122 40 24.5714Z" fill="url(#paint0_radial_25_551)"/>
<path fill-rule="evenodd" clip-rule="evenodd" d="M40 24.5714L39.8389 25.102C39.8389 25.1428 39.8389 25.1428 39.7986 25.1837C39.3958 26.5714 38.8721 27.8775 38.2276 29.102C37.1803 31.102 35.7704 32.9388 34.1591 34.4898C32.2659 36.2857 30.0101 37.7143 27.5126 38.6531C25.2568 39.5102 22.8399 40 20.3021 40C19.9396 40 19.577 40 19.2145 39.9592C18.6908 39.9184 18.1672 39.8776 17.6435 39.7959C14.2195 39.3469 11.0775 38.0408 8.41893 36.0816C8.17724 35.8775 7.93555 35.7143 7.69386 35.5102C8.17724 35.102 9.144 35.0612 9.144 35.0612L7.77442 33.9592L4.35045 32.0816C3.70594 31.2245 3.10171 30.3265 2.57804 29.3877C2.4572 29.1428 2.33635 28.9388 2.21551 28.6939C2.21551 28.6939 2.21551 28.6939 2.21551 28.6531C2.09466 28.4082 1.97382 28.1632 1.85297 27.9184C1.49044 27.1428 1.20845 26.3265 0.926481 25.4694C0.725071 24.8571 0.56395 24.2449 0.443104 23.6326C0.36254 23.1837 0.281974 22.7347 0.20141 22.2857C0.080564 21.3469 0 20.3673 0 19.3877C0 19.1428 0 18.9388 0 18.6939C0 18.3673 0.0402844 18 0.0402844 17.6734C0.0805664 17.3469 0.120841 17.0204 0.120841 16.6938C0.120841 16.653 0.120841 16.653 0.120841 16.6122C0.201405 16.1632 0.241689 15.7143 0.362535 15.2653C0.483381 14.6122 0.644514 14 0.845924 13.3877C1.08762 12.5306 1.40987 11.6734 1.7724 10.8979C2.13494 10.1224 2.53776 9.3469 2.98086 8.6122C4.35045 7.87751 5.23666 7.46935 5.23666 7.46935C5.23666 7.46935 28.8822 2.73465 29.2447 2.32648C29.6073 1.91832 31.3797 2.16321 31.3797 2.16321C32.5076 2.89791 33.5146 3.75505 34.4814 4.69383C34.7231 4.89791 34.9245 5.14281 35.1259 5.34689C35.2467 5.51016 35.4079 5.67343 35.5287 5.83669C35.7704 6.12241 35.9718 6.36731 36.2135 6.65302C37.0191 7.71425 37.7442 8.81628 38.3484 9.99996C38.5901 10.4489 38.7915 10.9387 38.993 11.3877C40.8056 18.6122 38.5498 24.7755 38.5498 24.7755C39.1541 24.653 39.6375 24.6122 40 24.5714Z" fill="url(#paint1_radial_25_551)"/>
<path fill-rule="evenodd" clip-rule="evenodd" d="M39.4362 19.4286C39.4362 20.1633 39.3959 20.898 39.3154 21.5919C39.1945 22.6939 38.9931 23.7551 38.7112 24.7756C38.7112 24.8164 38.7112 24.8164 38.7112 24.8572C38.3486 26.1633 37.8249 27.3878 37.2207 28.5307C36.2137 30.4082 34.9246 32.1225 33.3939 33.5919C31.6215 35.2654 29.4866 36.6123 27.1502 37.5103C25.0556 38.3266 22.7595 38.7756 20.3829 38.7756C20.0606 38.7756 19.6981 38.7756 19.3758 38.7348C18.8924 38.6939 18.3687 38.6531 17.8854 38.6123C14.6628 38.2041 11.7222 36.9388 9.22474 35.1021C8.8622 34.8164 8.49966 34.5307 8.13712 34.245C8.05656 34.1633 7.93572 34.0817 7.85515 34.0001C6.96895 33.1837 6.12302 32.3266 5.39795 31.347C4.79372 30.5715 4.22977 29.7143 3.7061 28.8164C3.58525 28.6123 3.46441 28.4082 3.38385 28.1633C3.38385 28.1633 3.38385 28.1633 3.38385 28.1225C3.263 27.8776 3.14216 27.6735 3.0616 27.4286C2.73934 26.6939 2.45737 25.9184 2.21568 25.1429C2.05455 24.5715 1.89342 24 1.77257 23.4286C1.69201 23.0204 1.61144 22.6123 1.57116 22.1633C1.45031 21.2653 1.36975 20.3674 1.36975 19.4286C1.36975 19.2245 1.36975 18.9796 1.36975 18.7755C1.36975 18.449 1.41004 18.1225 1.41004 17.8368C1.45032 17.5102 1.45031 17.2245 1.49059 16.898C1.49059 16.8572 1.49059 16.8572 1.49059 16.8164C1.53087 16.4082 1.61144 15.9592 1.692 15.551C1.81285 14.9388 1.97398 14.3674 2.13511 13.7551C2.3768 12.9388 2.65878 12.1633 3.02131 11.3878C3.38385 10.5714 3.82695 9.75512 4.31033 8.97961C4.63259 8.44899 4.99513 7.91839 5.39795 7.42859C5.92162 6.73471 6.52584 6.08164 7.13007 5.46939C10.554 2.08163 15.267 0 20.4231 0C20.6245 0 20.8259 0 21.0274 0C21.2288 0 21.4705 2.49147e-06 21.6719 0.0408189C22.2761 0.0816353 22.84 0.163268 23.4443 0.244901C23.4443 0.244901 23.4443 0.244901 23.4846 0.244901C23.9679 0.326534 24.4513 0.408165 24.8944 0.530614C25.4987 0.69388 26.1029 0.857147 26.6668 1.06123C27.0697 1.18368 27.4322 1.34695 27.835 1.51021C28.117 1.63266 28.399 1.75511 28.6809 1.87756C28.7212 1.91837 28.7615 1.91837 28.8421 1.95919C30.695 2.85715 32.3869 4.08164 33.837 5.55103C34.0384 5.75511 34.2399 5.9592 34.4413 6.16328C34.5621 6.32654 34.7232 6.44899 34.8441 6.61226C35.0455 6.85716 35.2872 7.14287 35.4886 7.38777C36.254 8.36736 36.8985 9.42859 37.4624 10.5306C38.1069 11.8368 38.6306 13.2245 38.9931 14.6531C39.2348 15.551 39.3557 16.4898 39.4765 17.4694C39.3959 18.1633 39.4362 18.7755 39.4362 19.4286Z" fill="url(#paint2_radial_25_551)"/>
<path fill-rule="evenodd" clip-rule="evenodd" d="M11.0373 11.7143C11.0373 11.7143 10.5136 12.8571 10.9567 14C11.3595 15.1429 12.568 14.4082 13.9779 14C15.3877 13.5918 16.8379 12.1224 17.7644 11.1837C18.6909 10.2449 19.5771 8.97958 19.4965 7.75509C19.4159 6.5306 18.1269 5.71427 18.1269 5.71427C18.1269 5.71427 18.6103 5.10202 18.2075 7.55101C17.8046 9.95917 17.281 10.8571 16.7573 11.2245C16.2337 11.5918 14.7029 12.5306 13.857 13.0612C13.0111 13.5918 12.0443 14.1225 11.4804 14C10.8761 13.7959 10.5942 12.5306 11.0373 11.7143Z" fill="url(#paint3_radial_25_551)"/>
<path fill-rule="evenodd" clip-rule="evenodd" d="M13.6153 10.8571C13.6153 10.8571 12.8902 11.5102 13.0916 12.0408C13.293 12.5714 14.6626 12.2449 15.5488 11.102C16.435 9.95918 15.7502 9.06122 15.7502 9.06122C15.7502 9.06122 15.428 10.9388 14.582 11.2653C13.7361 11.5918 13.4542 11.4694 13.4542 11.4694C13.4542 11.4694 13.2527 11.3061 13.6153 10.8571Z" fill="url(#paint4_radial_25_551)"/>
<path fill-rule="evenodd" clip-rule="evenodd" d="M11.4403 11.6734C11.4403 11.6734 12.1251 10.8571 12.9307 10.1224C13.7364 9.34692 15.106 9.0612 15.106 9.0612C15.106 9.0612 14.3003 8.61222 13.253 9.22446C12.2459 9.87753 11.4403 11.6734 11.4403 11.6734Z" fill="url(#paint5_radial_25_551)"/>
<path fill-rule="evenodd" clip-rule="evenodd" d="M8.53992 11.7142C8.53992 11.7142 10.1915 9.87749 12.1653 9.10198C14.1391 8.32647 14.8239 8.08156 15.7101 7.34687C16.5963 6.61217 17.5631 6.04075 17.5631 6.04075C17.5631 6.04075 15.6296 6.12238 12.689 8.04075C9.74838 9.87749 8.53992 11.102 8.53992 11.7142Z" fill="url(#paint6_radial_25_551)"/>
<path fill-rule="evenodd" clip-rule="evenodd" d="M4.55212 11.3469C4.55212 11.3469 7.37186 8.48975 9.58737 7.34689C11.8029 6.20403 13.2933 5.51016 15.2671 4.97954C17.2409 4.48975 20.3024 3.59179 20.3024 3.59179L20.8663 3.30607C20.8663 3.30607 14.5421 3.42852 10.4333 5.95914C6.32453 8.48975 4.55212 11.3469 4.55212 11.3469Z" fill="url(#paint7_radial_25_551)"/>
<path fill-rule="evenodd" clip-rule="evenodd" d="M7.97596 14.6531C7.97596 14.6531 8.45934 18.6123 9.14413 18.7755C9.82893 18.9388 12.2459 18.9388 15.8712 17.0613C19.4966 15.1837 20.2217 15.6327 22.2358 13.5511C24.2499 11.4694 25.0958 9.10206 25.7 7.55104C26.3445 6.00002 26.5057 4.2041 26.3043 3.67348C26.3043 3.67348 26.9891 4.08165 26.9891 5.63268C26.9891 7.1837 26.5459 9.79594 25.9014 11.2653C25.2569 12.7755 23.5651 15.1429 21.551 16.2857C19.5369 17.4286 15.4684 19.6735 11.5208 19.6327C7.53286 19.5919 8.17737 19.3062 7.77455 18.4898C7.33145 17.6735 7.97596 14.6531 7.97596 14.6531Z" fill="url(#paint8_radial_25_551)"/>
<path opacity="0.5" fill-rule="evenodd" clip-rule="evenodd" d="M1.77258 18C1.77258 18 2.49766 19.5919 2.8602 21.0613C3.26302 22.5307 3.18245 24.9796 4.83402 25.3878C6.48558 25.7551 8.78165 26.8572 9.62757 26.5715C10.5138 26.2858 13.7363 25.7143 15.549 26.0817C17.3617 26.449 20.6246 26.2449 21.7524 25.6735C22.8803 25.1021 25.3778 23.5919 26.546 23.1429C27.7142 22.6939 29.3255 21.3878 30.7353 19.9592C32.1452 18.5306 32.1049 16.898 32.4675 16.0817C32.83 15.2653 33.5148 12.0408 33.4342 10.5714C33.3537 9.10205 32.4675 6.36736 32.4675 6.36736L31.6618 5.51021C31.6618 5.51021 32.6689 9.26533 32.2258 11.9592C31.7827 14.6123 32.1855 15.7143 30.3728 18.2449C28.5601 20.8164 25.9821 22.8164 23.122 23.7551C20.262 24.7347 18.409 24.6123 15.4685 24.898C12.689 25.1429 9.22475 24.9796 7.85516 24.6123C6.60642 24.2858 4.95485 23.4694 3.70611 21.4286C2.37681 19.3062 1.77258 18 1.77258 18Z" fill="#7D72B3"/>
<path opacity="0.4" fill-rule="evenodd" clip-rule="evenodd" d="M8.09672 13.8367C8.09672 13.8367 8.37869 18.1224 8.90236 18.4897C9.42602 18.8571 10.5942 19.0204 11.6415 18.653C12.7291 18.2857 16.3545 17.0612 16.999 16.6938C17.6435 16.3265 21.4703 14.3673 22.2357 13.755C23.001 13.1836 24.0081 11.102 24.3706 10.6938C24.7332 10.2857 25.6597 7.71421 25.9013 6.73462C26.1833 5.75503 26.3444 4.61218 26.3444 4.61218C26.3444 4.61218 26.425 4.08156 25.9819 3.87747C25.5388 3.71421 25.4582 3.87747 25.4582 3.87747C25.4582 3.87747 25.3777 4.53054 24.9749 6.36728C24.572 8.20401 19.1743 14.4897 16.4351 16.1632C13.6959 17.7959 11.1179 17.8775 10.1914 17.755C9.2246 17.6326 8.05643 14.5714 8.09672 13.8367Z" fill="#7D72B3"/>
<path opacity="0.4" fill-rule="evenodd" clip-rule="evenodd" d="M7.97601 14.653C7.97601 14.653 8.09686 12 8.78165 11.102C9.46645 10.2041 11.7625 8.36733 13.0918 7.67345C14.4614 6.97957 16.3949 5.99998 17.0797 5.83671C17.7645 5.67344 18.2479 5.83671 18.2479 5.83671C18.2479 5.83671 17.4423 5.38772 15.549 5.87752C13.6558 6.36731 11.5208 8.12243 10.4735 8.69386C9.42617 9.22447 7.85517 10.5714 7.45235 11.2653C7.08981 11.8775 7.97601 14.653 7.97601 14.653Z" fill="#7D72B3"/>
<path opacity="0.4" fill-rule="evenodd" clip-rule="evenodd" d="M3.30322 11.8367L9.14411 6.65303L12.7695 4.97955C12.7695 4.97955 16.3546 3.75506 18.0061 3.3469C19.6577 2.93873 23.3234 2.8571 23.3234 2.8571L25.2569 3.06118C25.2569 3.06118 21.9135 1.22444 16.9185 2.57138C11.9639 3.91832 8.66073 5.63262 7.21058 7.02037C5.80071 8.36732 3.5852 11.1428 3.30322 11.8367Z" fill="#7D72B3"/>
<path fill-rule="evenodd" clip-rule="evenodd" d="M3.14219 12.0408C3.14219 12.0408 0.000193536 15.8775 1.53091 18.2448C3.06162 20.6122 3.74642 24.0408 4.18952 24.8163C4.63262 25.5918 9.70815 26.8163 10.7555 26.5714C11.8028 26.3265 14.3406 25.6734 15.9921 26.2857C15.9921 26.2857 18.9327 26.0408 19.7384 26.0408C20.5843 26.0408 22.115 25.3061 22.4775 25.1428C22.8401 24.9795 24.8139 24.3265 25.8209 23.9183C26.828 23.5102 28.4795 22.204 29.1241 21.7142C29.7686 21.1836 31.5007 19.102 31.8632 18.4489C32.1855 17.7959 33.1925 14.0408 33.4342 12.2448C33.6759 10.4489 32.9508 7.02034 32.3466 5.83667C31.7424 4.65299 29.97 3.55095 29.97 3.55095L30.0908 3.02033L31.5007 2.16319C31.5007 2.16319 33.9579 5.38768 34.1593 8.20401C34.2802 9.83667 34.683 13.3469 34.2399 14.8571C33.9176 16.0816 32.7494 19.5918 31.7021 20.8571C30.6951 22.1224 27.6336 25.3469 26.0224 26C24.4111 26.6122 19.5772 27.4693 16.7575 27.5102C14.6628 27.551 10.0707 27.1836 7.8149 27.102C5.55911 27.0204 3.94783 25.5918 3.06163 24.8571C2.17543 24.1224 2.4574 22.1632 1.57119 20.5714C0.644708 19.0204 0.161324 16.9387 0.362734 15.7959C0.564144 14.7346 3.14219 12.0408 3.14219 12.0408Z" fill="url(#paint9_radial_25_551)"/>
<path fill-rule="evenodd" clip-rule="evenodd" d="M8.66078 26.6938C8.1774 26.5714 7.7343 26.3265 7.25091 26.2041C6.96894 26.1224 6.72725 26.0816 6.44527 26C6.1633 25.9183 5.88132 25.8775 5.59935 25.8775C5.0354 25.8367 4.47145 25.7142 4.10891 25.2653C3.78665 24.8571 3.58525 24.4081 3.46441 23.8775C3.263 23.1836 3.10186 22.4898 2.90045 21.8367C2.69904 21.1836 2.45735 20.653 2.09481 20.0816C1.97397 19.8775 1.85312 19.6326 1.69199 19.4285C1.57115 19.2244 1.36975 19.0612 1.2489 18.8163C0.966926 18.2449 0.886353 17.6326 0.886353 16.9795C0.886353 16.653 0.966926 16.3265 1.04749 16C1.12805 15.5918 1.2489 15.2244 1.45031 14.8571C1.65172 14.5306 1.81285 14.1632 2.01426 13.8367C2.45736 13.0612 2.90046 12.2857 3.42412 11.5918C4.10892 10.7346 4.87428 9.8775 5.67992 9.10199C6.12302 8.65301 6.64668 8.24484 7.17034 7.83668C7.61344 7.51015 8.01627 7.1428 8.41909 6.81627C9.14416 6.24484 9.99008 5.87748 10.836 5.46932C11.8431 4.97952 12.8501 4.48973 13.8974 4.12238C15.1462 3.6734 16.3949 3.30605 17.6839 3.02034C19.1744 2.73462 20.7051 2.65299 22.1955 2.65299C23.0012 2.65299 23.8874 2.57136 24.693 2.85707C25.1361 3.02034 25.6598 3.22442 26.0223 3.46932C26.1029 3.55095 26.1432 3.55095 26.2237 3.63258C26.264 3.6734 26.264 3.75504 26.3043 3.79586C26.3848 3.95912 26.4251 4.1632 26.4251 4.32646C26.4251 4.48973 26.3446 4.653 26.3446 4.81627C26.3446 5.06116 26.264 5.30606 26.264 5.55096C26.264 5.83667 26.1834 6.04075 26.1432 6.32647C26.0626 6.81626 25.982 7.30606 25.7806 7.79586C25.4986 8.48974 25.2972 9.22443 25.0153 9.8775C24.9347 10.0816 24.7736 10.2448 24.6527 10.4489C24.5722 10.653 24.4916 10.7754 24.3708 10.9795C24.1693 11.3061 24.0082 11.6734 23.7665 11.9591C23.2831 12.6122 22.84 13.3061 22.1955 13.8367C21.4302 14.4489 20.6245 14.9795 19.7786 15.4285C19.2147 15.7142 18.6507 15.9591 18.0868 16.2449C17.6034 16.4898 17.0797 16.7755 16.5561 17.0204C15.267 17.6326 13.8572 18.0816 12.4876 18.5306C12.0847 18.653 11.7222 18.7755 11.3194 18.8571C10.9569 18.8979 10.5137 19.0204 10.1512 19.0204C9.74839 19.0204 9.34557 18.8979 8.94275 18.7755C8.29824 18.5714 8.21767 17.8367 8.17739 17.2244C8.13711 16.7755 8.09683 16.3265 8.01627 15.9183C7.9357 15.551 7.93571 15.2244 7.85514 14.8571C7.77458 14.4897 7.73429 14.1224 7.73429 13.7551C7.73429 13.2653 7.89542 12.8571 8.01627 12.3673C8.09683 12.0816 8.09683 11.755 8.25796 11.4693C8.41909 11.0612 8.74135 10.6938 9.10389 10.4081C9.42614 10.1224 9.78868 9.79587 10.1109 9.51015C10.3123 9.30607 10.554 9.18361 10.7554 9.02035C11.118 8.73463 11.5208 8.48974 11.9639 8.28566C12.2862 8.12239 12.5278 7.83668 12.8501 7.63259C13.1724 7.42851 13.5349 7.22443 13.8572 7.02035C14.1391 6.85708 14.4614 6.77545 14.7836 6.653C15.0253 6.57137 15.267 6.4081 15.5087 6.32647C15.7504 6.24483 15.9921 6.20402 16.2338 6.12238C16.4755 6.04075 16.6769 5.95912 16.9186 5.87748C17.2006 5.79585 17.4825 5.71422 17.7242 5.71422C18.2479 5.71422 18.4896 5.95912 18.6507 6.48973C18.8521 7.18361 18.6104 7.79586 18.3687 8.44892C18.1673 8.97954 17.9256 9.46933 17.7645 9.99994C17.5228 10.6938 16.8783 11.0612 16.3546 11.551C15.7907 12.0408 15.1059 12.5306 14.4614 12.8163C14.26 12.8979 14.0183 12.9795 13.8169 13.0612C13.6557 13.1428 13.4543 13.2653 13.2932 13.3469C13.1724 13.4285 13.0918 13.5102 12.9709 13.5918C12.8904 13.6734 12.7695 13.6734 12.6487 13.7551C12.407 13.9183 12.1653 14.0816 11.8833 14.204C11.6416 14.3265 11.118 14.4081 10.9568 14.0816C10.8763 13.9183 10.8763 13.7142 10.836 13.551C10.7957 13.3469 10.7957 13.1428 10.7957 12.9387C10.7957 12.7346 10.836 12.5714 10.8763 12.3673C10.9166 12.1632 10.9971 11.9999 11.0777 11.7959C11.2791 11.2244 11.6416 10.8163 11.9639 10.3673C12.1653 10.0816 12.3667 9.79587 12.6084 9.51015C12.9709 9.10199 13.4946 8.93871 13.978 8.77545C14.4211 8.653 15.1059 8.53055 15.549 8.77545C15.9115 9.02035 15.6698 9.51014 15.549 9.79586C15.4684 9.95912 15.4282 10.1224 15.3476 10.2857C15.3073 10.4081 15.3073 10.5714 15.2267 10.6938C15.0656 10.9387 14.7836 11.102 14.542 11.3061C14.4614 11.3877 14.3003 11.5102 14.1794 11.551C14.0183 11.5918 13.8572 11.5918 13.696 11.6326C13.6155 11.6326 13.5752 11.755 13.4946 11.7142C13.4141 11.6734 13.414 11.5918 13.414 11.5102C13.414 11.4285 13.4543 11.3469 13.4946 11.2653C13.4946 11.2653 13.4946 11.2244 13.4946 11.1836C13.5752 10.9387 13.8571 10.653 13.978 10.4489C14.1794 10.5306 14.0586 10.653 14.0183 10.7754C13.978 10.8571 13.978 10.9387 13.978 11.0203C13.978 11.102 13.8572 11.2244 13.9377 11.3061C13.978 11.3469 14.1794 11.2653 14.2197 11.2653C14.7031 11.102 14.9851 10.5714 15.1462 10.1224C15.2267 9.79587 15.2267 9.30606 14.9045 9.14279C14.6628 9.06116 14.3405 9.10199 14.0988 9.10199C13.1724 9.10199 12.6084 10.1224 12.0847 10.7754C11.7625 11.2244 11.4805 11.7142 11.2791 12.2448C11.1583 12.6122 11.0777 12.9795 10.9971 13.3469C10.9166 13.6326 10.836 14.0408 11.2388 14C11.4805 13.9591 11.7222 13.8367 11.9639 13.7551C12.1653 13.6734 12.3264 13.6326 12.5279 13.5102C12.8098 13.3469 13.1724 13.3061 13.4543 13.1428C13.696 13.0204 13.9377 12.8979 14.1794 12.7755C14.7836 12.4489 15.4281 11.8367 15.831 11.3061C16.1129 10.9387 16.556 10.653 16.8783 10.3265C17.2408 9.99995 17.402 9.55096 17.6437 9.14279C17.8853 8.69381 18.0062 8.28566 18.127 7.83668C18.2076 7.42851 18.4896 6.93871 18.3285 6.48973C18.2076 6.04075 17.6034 6.04075 17.2408 6.08156C16.9186 6.12238 16.5963 6.20401 16.2741 6.28565C15.7101 6.48973 15.1865 6.73463 14.6628 6.97953C13.8169 7.34688 13.0918 7.91831 12.3264 8.4081C11.9236 8.653 11.4805 8.85708 11.118 9.14279C10.836 9.34688 10.5943 9.6326 10.3123 9.83668C10.1109 9.99994 9.99008 10.204 9.74839 10.3265C9.46641 10.5306 9.22473 10.7346 9.02332 10.9795C8.86219 11.1836 8.66078 11.4693 8.58021 11.7142C8.49965 11.9183 8.58021 12.1224 8.58021 12.3265C8.58021 12.6122 8.49966 12.8979 8.49966 13.1836C8.49966 13.4693 8.49966 13.7959 8.49966 14.0816C8.49966 14.6938 8.41909 15.2653 8.41909 15.8367C8.41909 16.204 8.49965 16.6122 8.58021 16.9387C8.62049 17.2244 8.74134 17.4693 8.78162 17.7551C8.78162 17.9591 8.8219 18.204 8.98303 18.3265C9.0636 18.3673 9.18445 18.4081 9.26501 18.4489C9.34557 18.4898 9.42614 18.5306 9.50671 18.5306C9.54699 18.5306 9.58727 18.5714 9.66783 18.5714C9.70811 18.5714 9.74839 18.653 9.74839 18.653C9.82895 18.6938 9.99009 18.653 10.0707 18.653C10.3123 18.6122 10.554 18.5714 10.7554 18.4898C11.3597 18.4081 11.9236 18.4081 12.4876 18.204C13.1321 17.9591 13.7363 17.5918 14.3405 17.3469C15.267 16.9387 16.3143 16.653 17.2006 16.1632C17.6034 15.9591 18.0465 15.7142 18.4493 15.551C19.4563 15.102 20.5037 14.7346 21.3496 14.0408C21.6719 13.7959 21.9538 13.4693 22.2358 13.1836C22.3969 13.0204 22.5581 12.8571 22.7192 12.653C23.1623 12.0816 23.5651 11.4693 23.8874 10.8571C24.0485 10.6122 24.1291 10.2857 24.2499 10.0408C24.4916 9.6326 24.7333 9.26525 24.975 8.85709C25.1764 8.44892 25.2972 8.04076 25.4181 7.59178C25.4986 7.30606 25.5792 7.10198 25.5389 6.81627C25.5389 6.24484 25.5792 5.75504 25.8209 5.22443C25.9418 4.93872 26.1432 4.53055 26.0223 4.20402C25.982 4.04076 25.7403 3.99994 25.6195 3.95912C25.2972 3.83667 24.975 3.75503 24.6527 3.63258C24.3707 3.51013 24.1693 3.34687 23.8471 3.30606C23.7262 3.26524 23.6054 3.26524 23.4845 3.26524C23.1623 3.26524 22.9206 3.51013 22.5983 3.46932C22.5178 3.46932 22.4372 3.4285 22.3164 3.4285C22.1552 3.38768 21.9941 3.4285 21.833 3.4285C21.4704 3.4285 21.1482 3.34687 20.7857 3.34687C20.3828 3.34687 19.98 3.38768 19.5772 3.4285C19.1744 3.46932 18.8118 3.4285 18.409 3.4285C18.1673 3.4285 18.0062 3.55095 17.8048 3.63258C17.6034 3.71421 17.402 3.75503 17.2006 3.83666C16.9991 3.9183 16.838 3.95912 16.6366 3.99994C16.3546 3.99994 16.1129 3.95911 15.831 4.04075C15.5087 4.12238 15.1865 4.24483 14.8642 4.36728C14.0183 4.73463 13.1724 5.22442 12.2862 5.51014C11.8431 5.63259 11.4 5.71422 10.9971 5.87748C10.836 5.95912 10.7152 6.04075 10.554 6.1632C10.2721 6.36728 9.99009 6.53054 9.70811 6.69381C9.0636 7.10197 8.45937 7.55096 7.81486 8.04076C7.08978 8.57137 6.40499 9.1428 5.80076 9.83668C4.75343 11.0612 3.66581 12.2857 2.73933 13.6326C2.29622 14.2448 1.81284 14.9387 1.53087 15.6326V15.6734C1.36974 16.0816 1.28917 16.4897 1.32946 16.9387C1.32946 16.9387 1.32946 16.9387 1.32946 16.9795C1.36974 17.3469 1.53087 17.7551 1.65172 18.0816C1.81285 18.4081 1.8934 18.7347 2.09481 19.0612C2.29622 19.3877 2.5782 19.6734 2.69904 20.0408C2.86017 20.4898 3.0213 20.9796 3.18243 21.4693C3.34356 22.0408 3.50469 22.653 3.58525 23.2653C3.66581 23.6326 3.70609 24.0408 3.9075 24.3673C4.14919 24.8571 4.67286 25.0204 5.11596 25.3061C5.35765 25.4694 5.4785 25.5102 5.76047 25.5102C6.12301 25.551 6.52584 25.6326 6.88838 25.7551C7.65373 26 8.45937 26.1632 9.26501 26.1632C9.74839 26.1632 10.2318 26.0408 10.6749 25.9592C11.118 25.9183 11.5611 25.8775 12.0042 25.7959C12.407 25.7143 12.8098 25.6326 13.2126 25.6326C13.6155 25.6326 14.0586 25.7143 14.4211 25.7959C15.1059 26 15.7504 26.1224 16.4352 26.1224C16.8783 26.1224 17.2811 26 17.7242 26C18.127 25.9592 18.4896 26.0408 18.8924 26.0816C19.5772 26.1224 20.262 25.9591 20.9065 25.7142C21.3496 25.551 21.7121 25.3469 22.115 25.102C22.4372 24.8979 22.7595 24.8571 23.0817 24.7755C23.7665 24.5714 24.4513 24.3265 25.0958 23.9592C25.9015 23.4694 26.5863 22.7755 27.3919 22.2857C27.835 22 28.3587 21.7959 28.8018 21.5102C29.1643 21.2653 29.5268 20.9796 29.8088 20.653C30.1714 20.2857 30.4936 19.9183 30.8562 19.551C31.1381 19.2653 31.259 18.8979 31.3798 18.5714C31.6215 18.0408 31.7021 17.5102 31.7826 16.9387C31.8632 16.3673 32.1049 15.8775 32.3466 15.3877C32.6688 14.7346 32.9105 14.1224 32.9508 13.3877C32.9911 12.8163 33.0717 12.2857 33.0717 11.7142C33.0717 11.3469 33.0314 11.0204 32.9508 10.653C32.9105 10.3265 32.83 9.99994 32.7897 9.67341C32.7091 9.26525 32.7091 8.85709 32.6286 8.44892C32.548 8.12239 32.4674 7.75504 32.3869 7.38769C32.3063 7.1428 32.2257 6.8979 32.1452 6.653C31.984 6.24484 31.7424 5.83667 31.4604 5.46932C31.3395 5.30605 31.1784 5.26524 31.0576 5.18361C30.9367 5.10198 30.9367 5.02035 30.8159 4.97953C30.6547 4.8979 30.4936 4.81626 30.3325 4.73463C30.0505 4.57136 29.7685 4.53055 29.4866 4.36728C29.2449 4.24483 29.0032 4.04075 28.7615 3.87748C28.4795 3.71422 28.1975 3.59177 27.9558 3.34687C27.7142 3.10198 27.553 2.81626 27.3516 2.61218C27.1099 2.36728 26.7877 2.20401 26.546 1.99993C26.1029 1.63258 25.5389 1.59177 25.0555 1.38769C24.8138 1.26524 24.5319 1.26524 24.2902 1.1836C23.9679 1.10197 23.7665 0.938707 23.4443 0.897891C23.1623 0.857074 22.8803 0.857073 22.5581 0.77544C22.3969 0.734624 22.2358 0.693809 22.0344 0.693809C21.7121 0.652992 21.3496 0.693805 21.0273 0.734621C20.7454 0.775438 20.4231 0.734621 20.1411 0.734621C19.8995 0.734621 19.6175 0.775438 19.3758 0.734621C18.6507 0.612172 17.8854 0.652992 17.1603 0.693809C16.4755 0.734625 15.7907 0.775436 15.1462 1.02033C14.5822 1.22442 14.0586 1.38769 13.4946 1.59177C13.1321 1.75503 12.8098 1.95911 12.4473 2.16319C11.6014 2.65299 10.836 3.22442 10.0707 3.75504C9.18445 4.36728 8.33853 5.02034 7.49261 5.6734C6.92866 6.08156 6.36471 6.53055 5.84104 6.93871C5.59935 7.14279 5.35765 7.34687 5.15624 7.55096C5.67991 6.85708 6.28415 6.20402 6.88838 5.59177C10.3123 2.20402 15.0253 0.122375 20.1814 0.122375C20.3828 0.122375 20.5842 0.122375 20.7857 0.122375C20.9871 0.122375 21.2288 0.122378 21.4302 0.163194C22.0344 0.204011 22.5983 0.285644 23.2026 0.367276C23.2026 0.367276 23.2026 0.367276 23.2428 0.367276C23.8874 0.530542 24.5319 0.734621 25.2167 0.938703C25.7806 1.10197 26.3043 1.26523 26.828 1.4285C27.1905 1.55095 27.5127 1.71421 27.8753 1.83666C28.1975 1.95911 28.5198 2.08156 28.8018 2.24483C29.2852 2.53054 29.7282 2.85708 30.1311 3.18361C30.413 3.38769 30.695 3.6734 30.9367 3.9183C31.2992 4.28565 31.6215 4.69381 31.9035 5.10197C32.548 6.12238 33.0717 7.26525 33.3133 8.48974C33.5148 9.51015 33.5148 10.5714 33.4745 11.5918C33.4342 12.1224 33.3536 12.7346 33.2328 13.2653C33.1119 13.8775 32.9105 14.4081 32.83 15.0204C32.7897 15.3061 32.83 15.6326 32.7897 15.9183C32.7494 16.1632 32.6688 16.4081 32.6286 16.653C32.548 17.1428 32.3869 17.6734 32.1452 18.1224C31.8229 18.7755 31.4201 19.3061 30.9367 19.8367C30.413 20.4489 29.8894 21.0612 29.3254 21.6326C28.8018 22.2449 28.1572 22.7347 27.4725 23.1428C26.9488 23.4694 26.3849 23.8775 25.8209 24.0816C25.257 24.2857 24.6527 24.6122 24.0485 24.6938C23.6054 24.7347 23.2429 24.8979 22.8803 25.1836C22.6789 25.3469 22.4775 25.551 22.2761 25.7551C22.0747 25.9183 21.8733 25.9592 21.6316 26.0408C21.1079 26.2041 20.5842 26.1632 20.0203 26.1632C19.2147 26.1632 18.4493 26.2449 17.6839 26.3265C17.2811 26.3673 16.8783 26.4081 16.5158 26.3673C16.1532 26.3265 15.7907 26.2449 15.4684 26.2041C15.0656 26.1632 14.7031 26.1632 14.3003 26.0816C13.978 26.0408 13.7363 26.0408 13.4543 26.0816C13.2126 26.1224 12.971 26.0816 12.689 26.0816C12.4473 26.1224 12.1653 26.1632 11.9236 26.2041C10.9569 26.4489 9.86924 26.9796 8.66078 26.6938Z" fill="#00C4FF"/>
<path fill-rule="evenodd" clip-rule="evenodd" d="M7.73425 35.551C7.73425 35.551 12.2056 36.3265 14.2197 36.2857C17.2811 36.2041 20.8259 36.5715 23.5651 36.6531C26.3043 36.7347 31.0978 34.449 31.984 34.0408C32.8702 33.6327 34.9649 32.4082 36.8178 30.3265C38.6708 28.2449 39.3959 24.8571 39.3959 24.8571H38.6305C38.6305 24.8571 38.3486 26.3265 37.2207 27.9592C36.5359 28.9388 35.5691 29.7959 34.2398 30.9796C32.3063 32.6531 29.8088 33.9592 27.271 34.6123C23.8873 35.4694 20.9065 35.2245 18.8118 35.551C15.8309 36 9.14412 34.9388 9.14412 34.9388L7.73425 35.551Z" fill="url(#paint10_radial_25_551)"/>
<path fill-rule="evenodd" clip-rule="evenodd" d="M6.56628 33.3061C6.56628 33.3061 7.29136 35.1837 7.73446 35.551C7.73446 35.551 8.70123 35.5918 9.18461 35.1021L7.81503 34L6.56628 33.3061Z" fill="url(#paint11_radial_25_551)"/>
<path fill-rule="evenodd" clip-rule="evenodd" d="M39.4764 21.3469C39.4764 21.3469 39.9598 23.4694 40.0001 24.6122C40.0001 24.6122 39.2347 25.102 38.6708 24.8571C38.6708 24.8571 39.3556 22.2449 39.4764 21.3469Z" fill="url(#paint12_radial_25_551)"/>
<path fill-rule="evenodd" clip-rule="evenodd" d="M26.546 1.14276C26.546 1.14276 30.5339 1.55093 31.4604 2.20399C31.4604 2.20399 30.8159 2.93868 30.0506 3.06113C30.0908 3.02031 26.8683 1.22439 26.546 1.14276Z" fill="#EE8CFF"/>
<path fill-rule="evenodd" clip-rule="evenodd" d="M3.02112 8.65301L4.67268 8.4081L5.31718 7.55096C5.31718 7.51014 4.14901 8.04076 3.02112 8.65301Z" fill="#FF61C7"/>
<path opacity="0.5" fill-rule="evenodd" clip-rule="evenodd" d="M4.35071 32.1224C4.35071 32.1224 12.0849 34.4081 18.0869 34.5306C24.1292 34.653 26.385 33.3061 29.0033 32.2449C31.6216 31.2245 35.8915 28.8979 37.1805 27.1428C38.4695 25.4285 39.4766 21.3469 39.4766 21.3469C39.4766 21.3469 38.2279 27.4693 37.1805 28.5306C36.0929 29.5918 31.3396 32.8979 30.4937 33.3061C29.6478 33.7143 27.392 35.4694 23.243 34.9796C23.243 34.9796 20.4635 35.3877 19.4564 35.3061C18.4494 35.2245 16.8784 36.2449 14.0184 35.3061C14.0184 35.3061 10.0305 35.102 9.18455 34.8979C8.29834 34.7347 4.35071 32.1224 4.35071 32.1224Z" fill="#54469B"/>
<path fill-rule="evenodd" clip-rule="evenodd" d="M6.24377 23.8776C6.24377 23.8776 12.6486 25.0204 17.281 24.5306C21.9135 24.0408 24.4109 22.8572 25.7402 22C27.0696 21.1429 29.6476 18.3265 30.6144 17.0204C31.5811 15.7551 32.0645 12.5306 32.0645 12.5306C32.0645 12.5306 32.2257 15.6327 31.4603 17.0204C30.6547 18.3674 27.9558 20.9388 26.8279 21.6735C25.7 22.4082 22.5177 24.2041 20.8661 24.4898C19.2146 24.7755 16.4754 25.6327 14.4613 25.2653C12.5278 24.9388 7.69393 25.0204 6.24377 23.8776Z" fill="#B04FE2"/>
<path fill-rule="evenodd" clip-rule="evenodd" d="M15.1058 34.2857C15.1058 34.2857 21.7524 33.8367 24.0484 33.3061C26.3445 32.7755 29.3657 31.551 31.4603 30.7347C33.555 29.9592 35.1663 28.4081 36.3344 27.551C37.5026 26.6939 38.993 23.102 38.993 23.102C38.993 23.102 38.0263 26.653 36.5761 27.7959C35.126 28.9388 31.3798 31.0612 27.1904 32.9796C22.4774 35.102 18.8521 34.4898 15.1058 34.2857Z" fill="#8B40E0"/>
<path fill-rule="evenodd" clip-rule="evenodd" d="M38.3486 25.7959C38.4694 25.4694 38.55 25.1429 38.6708 24.8571C38.3083 26.1633 37.7846 27.3878 37.1804 28.5306C37.0193 28.6939 36.7776 28.8572 36.6164 29.0204C36.4553 29.2245 36.2942 29.3878 36.133 29.5918C35.2468 30.449 34.2801 31.2245 33.2327 31.8776C32.1854 32.5714 31.1381 33.2245 29.9699 33.7551C29.0837 34.1633 28.1572 34.4898 27.2307 34.7347C26.4654 34.9388 25.6597 35.0204 24.8944 35.0612C24.4916 35.1021 24.129 35.1429 23.7262 35.1837C23.2428 35.2245 22.7191 35.2245 22.276 35.3061C21.4301 35.4694 20.5842 35.5919 19.7383 35.6327C19.0132 35.6735 18.2881 35.7959 17.5631 35.7959C16.6366 35.7959 15.7101 35.6327 14.7836 35.6327C13.8974 35.6327 12.9709 35.5919 12.0847 35.5102C11.561 35.4694 11.0374 35.347 10.5137 35.3061C10.0706 35.2653 9.62751 35.1429 9.1844 35.1021C8.82187 34.8163 8.45934 34.5306 8.0968 34.2449C8.01623 34.1633 7.89538 34.0817 7.81482 34C8.33849 34.1633 8.82186 34.3265 9.34553 34.4898C10.0706 34.7347 10.8762 34.8572 11.6013 34.9388C12.2056 35.0204 12.9709 35.0612 13.5751 34.898C14.2196 34.7347 14.6628 34.9388 15.2267 35.1837C15.5087 35.3061 15.7504 35.347 16.0323 35.4286C16.4352 35.551 16.7171 35.5102 17.12 35.4694C17.4825 35.4286 17.845 35.347 18.1673 35.3061C18.4493 35.2245 18.7715 35.1021 19.0535 35.0612C19.5772 34.9796 20.1411 34.898 20.6648 35.0204C21.269 35.1429 21.8732 35.1837 22.4775 35.1021C23.122 34.9796 23.6859 34.9388 24.3304 34.9388C24.5318 34.9388 24.7332 34.9796 24.9347 34.9796C25.1764 35.0204 25.3778 34.9388 25.6195 34.9388C26.0223 34.898 26.4251 34.8163 26.8279 34.6939C27.1905 34.5714 27.553 34.4082 27.9155 34.2857C28.6406 34 29.2448 33.7551 29.8893 33.3061C30.413 32.9388 31.0172 32.6939 31.5409 32.3265C32.0646 32 32.5077 31.551 33.0313 31.2653C33.5953 30.9388 34.0787 30.4898 34.6023 30.1225C34.9246 29.8776 35.2468 29.5918 35.5691 29.3469C35.8511 29.1429 36.1733 28.9796 36.4553 28.7347C36.8984 28.3265 37.3415 27.9184 37.6638 27.3469C37.9457 26.8571 38.1874 26.3265 38.3486 25.7959Z" fill="#00C4FF"/>
<path fill-rule="evenodd" clip-rule="evenodd" d="M17.8854 15.0612C17.8854 15.0612 22.4775 11.2245 24.4111 7.51017C24.4513 7.51017 19.0536 13.102 17.8854 15.0612Z" fill="#FF77F4"/>
<path fill-rule="evenodd" clip-rule="evenodd" d="M13.0514 19.5919C13.0514 19.5919 15.9517 19.5919 19.1743 18.2449C22.3968 16.898 24.0081 14.0817 24.0081 14.0817C24.0081 14.0817 21.8329 16.2041 19.4562 17.3878C17.0796 18.5715 15.3072 18.8572 13.0514 19.5919Z" fill="#F9C6FF"/>
<path fill-rule="evenodd" clip-rule="evenodd" d="M24.5319 13.4285C24.5319 13.4285 24.8541 12.5714 25.4583 11.102C26.0626 9.63261 26.546 8.81628 26.546 8.81628C26.546 8.81628 26.3848 11.102 24.5319 13.4285Z" fill="#EA9CF4"/>
<path fill-rule="evenodd" clip-rule="evenodd" d="M12.0444 27.3877C12.0444 27.3877 16.0726 28.3673 21.3496 27.3877C26.6265 26.4081 26.8279 26.0816 28.2781 24.8979C29.7282 23.7551 30.7756 22.2857 31.3395 21.7143C31.9034 21.1428 32.6285 19.2245 32.6285 19.2245C32.6285 19.2245 31.1381 21.9183 29.0031 23.7551C26.8682 25.551 25.0958 26.449 21.5107 27.0204C17.9659 27.551 13.8571 27.4694 12.0444 27.3877Z" fill="#D374F4"/>
<path fill-rule="evenodd" clip-rule="evenodd" d="M15.5892 36.2857C15.5892 36.2857 19.2549 36.6122 20.7453 36.8979C22.2358 37.2245 25.0958 37.1837 26.7473 36.5714C28.3989 35.9592 31.6215 34.2041 31.6215 34.2041C31.6215 34.2041 28.6003 35.9183 24.9749 36.3265C21.3898 36.6939 19.1743 36.0816 15.5892 36.2857Z" fill="#D374F4"/>
<path fill-rule="evenodd" clip-rule="evenodd" d="M32.7091 33.6735C32.7091 33.6735 35.0455 32.0816 36.1734 31.0612C36.1734 31.0204 34.9649 32.7347 32.7091 33.6735Z" fill="#D374F4"/>
<path fill-rule="evenodd" clip-rule="evenodd" d="M15.0255 13.5102C15.0255 13.5102 17.6841 11.4694 18.53 10.0408C19.376 8.57144 19.4565 7.75511 19.4565 7.75511C19.4565 7.75511 19.8191 9.18368 18.2481 10.9796C16.6368 12.7755 15.0255 13.5102 15.0255 13.5102Z" fill="#F2C4F8"/>
<path fill-rule="evenodd" clip-rule="evenodd" d="M2.53806 24.1633C2.49778 25.0613 2.98116 26.0817 4.55216 26.6939C6.12316 27.3061 7.33161 27.1429 7.33161 27.1429C7.33161 27.1429 5.51892 26.7755 4.51187 26.0817C3.50482 25.3061 2.53806 24.1633 2.53806 24.1633Z" fill="#F5CEFA"/>
<defs>
<radialGradient id="paint0_radial_25_551" cx="0" cy="0" r="1" gradientUnits="userSpaceOnUse" gradientTransform="translate(7.64314 12.1981) scale(31.1857 31.5994)">
<stop offset="0.00558659" stop-color="#FF9AFF"/>
<stop offset="0.0930098" stop-color="#FB94FF"/>
<stop offset="0.2093" stop-color="#F183FF"/>
<stop offset="0.3418" stop-color="#E068FF"/>
<stop offset="0.4864" stop-color="#C841FF"/>
<stop offset="0.639" stop-color="#A910FF"/>
<stop offset="0.6844" stop-color="#9F00FF"/>
<stop offset="0.7432" stop-color="#9900F8"/>
<stop offset="0.8282" stop-color="#8700E5"/>
<stop offset="0.9287" stop-color="#6A00C6"/>
<stop offset="1" stop-color="#5200AB"/>
</radialGradient>
<radialGradient id="paint1_radial_25_551" cx="0" cy="0" r="1" gradientUnits="userSpaceOnUse" gradientTransform="translate(7.64314 12.1981) scale(31.1857 31.5994)">
<stop offset="0.00558659" stop-color="#FF9AFF"/>
<stop offset="0.0930098" stop-color="#FB94FF"/>
<stop offset="0.2093" stop-color="#F183FF"/>
<stop offset="0.3418" stop-color="#E068FF"/>
<stop offset="0.4864" stop-color="#C841FF"/>
<stop offset="0.639" stop-color="#A910FF"/>
<stop offset="0.6844" stop-color="#9F00FF"/>
<stop offset="0.7432" stop-color="#9900F8"/>
<stop offset="0.8282" stop-color="#8700E5"/>
<stop offset="0.9287" stop-color="#6A00C6"/>
<stop offset="1" stop-color="#5200AB"/>
</radialGradient>
<radialGradient id="paint2_radial_25_551" cx="0" cy="0" r="1" gradientUnits="userSpaceOnUse" gradientTransform="translate(8.52766 10.3697) scale(30.6552 31.0619)">
<stop offset="0.00558659" stop-color="#FF9AFF"/>
<stop offset="0.0930098" stop-color="#FB94FF"/>
<stop offset="0.2093" stop-color="#F183FF"/>
<stop offset="0.3418" stop-color="#E068FF"/>
<stop offset="0.4864" stop-color="#C841FF"/>
<stop offset="0.639" stop-color="#A910FF"/>
<stop offset="0.6844" stop-color="#9F00FF"/>
<stop offset="0.7432" stop-color="#9900F8"/>
<stop offset="0.8282" stop-color="#8700E5"/>
<stop offset="0.9287" stop-color="#6A00C6"/>
<stop offset="1" stop-color="#5200AB"/>
</radialGradient>
<radialGradient id="paint3_radial_25_551" cx="0" cy="0" r="1" gradientUnits="userSpaceOnUse" gradientTransform="translate(12.5588 7.08456) scale(6.85463 6.94557)">
<stop offset="0.630208" stop-color="white"/>
<stop offset="1" stop-color="#EF9AFF"/>
</radialGradient>
<radialGradient id="paint4_radial_25_551" cx="0" cy="0" r="1" gradientUnits="userSpaceOnUse" gradientTransform="translate(13.6493 9.59534) scale(2.38461 2.41625)">
<stop stop-color="white"/>
<stop offset="1" stop-color="#F7ABFF"/>
</radialGradient>
<radialGradient id="paint5_radial_25_551" cx="0" cy="0" r="1" gradientUnits="userSpaceOnUse" gradientTransform="translate(12.183 9.37165) scale(2.51279 2.54613)">
<stop stop-color="white"/>
<stop offset="1" stop-color="#F9D0FD"/>
</radialGradient>
<radialGradient id="paint6_radial_25_551" cx="0" cy="0" r="1" gradientUnits="userSpaceOnUse" gradientTransform="translate(10.4056 6.91945) scale(5.80444 5.88144)">
<stop stop-color="white"/>
<stop offset="1" stop-color="#F7C2FC"/>
</radialGradient>
<radialGradient id="paint7_radial_25_551" cx="0" cy="0" r="1" gradientUnits="userSpaceOnUse" gradientTransform="translate(7.92477 4.63346) scale(9.84117 9.97174)">
<stop stop-color="white"/>
<stop offset="1" stop-color="#F5AEFE"/>
</radialGradient>
<radialGradient id="paint8_radial_25_551" cx="0" cy="0" r="1" gradientUnits="userSpaceOnUse" gradientTransform="translate(11.5721 6.21296) scale(13.7124 13.8944)">
<stop offset="0.744792" stop-color="white"/>
<stop offset="0.9998" stop-color="#E886FF"/>
<stop offset="0.9999" stop-color="#ED8CFF"/>
</radialGradient>
<radialGradient id="paint9_radial_25_551" cx="0" cy="0" r="1" gradientUnits="userSpaceOnUse" gradientTransform="translate(7.29639 6.31511) scale(23.1665 23.4739)">
<stop offset="0.84375" stop-color="#EEADFE"/>
<stop offset="1" stop-color="#B439EE"/>
</radialGradient>
<radialGradient id="paint10_radial_25_551" cx="0" cy="0" r="1" gradientUnits="userSpaceOnUse" gradientTransform="translate(14.2406 26.7589) scale(18.2586 18.5009)">
<stop offset="0.572917" stop-color="#EEB9FF"/>
<stop offset="1" stop-color="#7801BD"/>
</radialGradient>
<radialGradient id="paint11_radial_25_551" cx="0" cy="0" r="1" gradientUnits="userSpaceOnUse" gradientTransform="translate(7.0508 33.8969) scale(1.97059 1.99674)">
<stop stop-color="#6D00C2"/>
<stop offset="0.3995" stop-color="#6600BC"/>
<stop offset="0.976" stop-color="#5300AC"/>
<stop offset="1" stop-color="#5200AB"/>
</radialGradient>
<radialGradient id="paint12_radial_25_551" cx="0" cy="0" r="1" gradientUnits="userSpaceOnUse" gradientTransform="translate(38.9212 22.2869) scale(2.05828 2.08559)">
<stop stop-color="#1F0081"/>
<stop offset="0.73" stop-color="#260087"/>
<stop offset="1" stop-color="#2A008B"/>
</radialGradient>
</defs>
</svg>
