<svg width="90" height="40" viewBox="0 0 90 40" fill="none" xmlns="http://www.w3.org/2000/svg">
<g filter="url(#filter0_d_25_489)">
<path d="M84 19.7143C84 18.9639 82.9912 18.2208 81.0313 17.5275C79.0714 16.8342 76.1986 16.2043 72.5772 15.6737C68.9557 15.1431 64.6564 14.7222 59.9247 14.435C55.193 14.1478 50.1216 14 45 14C39.8784 14 34.807 14.1478 30.0753 14.435C25.3436 14.7222 21.0443 15.1431 17.4228 15.6737C13.8013 16.2043 10.9286 16.8342 8.9687 17.5275C7.00876 18.2208 6 18.9639 6 19.7143" stroke="url(#paint0_linear_25_489)" stroke-width="3.58374" stroke-linecap="round" stroke-linejoin="round"/>
</g>
<path fill-rule="evenodd" clip-rule="evenodd" d="M64.3835 19.7475C64.3835 21.672 64.1395 23.5129 63.6514 25.2283C62.6752 28.7427 60.8042 31.8387 58.2418 34.2653C56.4522 35.9806 54.2965 37.3613 51.9375 38.2817C49.8225 39.1185 47.5041 39.5787 45.1044 39.5787C44.779 39.5787 44.4129 39.5787 44.0876 39.5368C43.5995 39.495 43.0707 39.4532 42.5827 39.4113C38.8814 38.9093 35.4648 37.3194 32.7397 34.9347C31.7229 34.0561 30.7874 33.052 29.9333 31.9642C29.3232 31.1693 28.7538 30.2907 28.2657 29.3702C28.1437 29.161 28.0216 28.91 27.8996 28.7008C27.7776 28.4498 27.6556 28.2406 27.5742 27.9896C27.2489 27.2365 26.9641 26.4416 26.7201 25.6466C26.5574 25.0609 26.3947 24.4752 26.2727 23.8895C26.1914 23.4711 26.11 23.0527 26.0693 22.5925C25.9473 21.672 25.866 20.7516 25.866 19.7893C25.866 19.2454 25.866 18.7016 25.9473 18.1577C25.988 17.823 25.988 17.4883 26.0693 17.1535C26.3134 15.1872 26.8421 13.3463 27.6149 11.6309C27.981 10.7942 28.4284 9.95743 28.9165 9.20434C29.7299 7.90737 30.6654 6.69407 31.7636 5.60628C35.2208 2.13373 39.9796 0 45.1857 0C45.3891 0 45.5925 0 45.7958 0C45.9992 0 46.2432 9.56971e-07 46.4466 0.0418389C47.5448 0.125515 48.643 0.292867 49.6598 0.543894C50.2699 0.711246 50.88 0.878597 51.4494 1.08779C51.8561 1.2133 52.2222 1.38065 52.6289 1.548C52.9136 1.67352 53.1984 1.79903 53.4831 1.92455C53.5238 1.96638 53.5644 1.96638 53.6458 2.00822C55.5167 2.92866 57.225 4.18379 58.6892 5.68996C58.8926 5.89915 59.096 6.10834 59.2993 6.31753C59.4214 6.48488 59.5841 6.61039 59.7061 6.77775C59.9501 7.02877 60.1535 7.32164 60.3568 7.57266C61.1296 8.57677 61.7804 9.66456 62.3498 10.7942C63.0006 12.133 63.5293 13.5555 63.8954 15.0198C64.1801 16.526 64.3835 18.1158 64.3835 19.7475Z" fill="url(#paint1_radial_25_489)"/>
<path opacity="0.5" fill-rule="evenodd" clip-rule="evenodd" d="M53.5644 1.92457C53.4831 1.92457 53.4424 1.92457 53.361 1.96641C53.1577 2.00825 52.9543 1.96641 52.7509 1.92457C52.5882 1.88273 52.5069 1.79906 52.3035 1.79906C52.0595 1.75722 51.8561 1.67354 51.6121 1.63171C51.3681 1.58987 51.1647 1.50619 50.9206 1.42252C50.7173 1.33884 50.6359 1.38068 50.4733 1.42252C50.3106 1.46435 50.1885 1.38068 50.0259 1.33884C49.8632 1.25516 49.6598 1.25516 49.4971 1.21333C49.009 1.12965 48.5209 0.962299 48.0329 0.836785C47.7481 0.753109 47.4634 0.753111 47.138 0.753111C46.894 0.753111 46.6906 0.836785 46.4466 0.836785C46.2839 0.836785 46.1619 0.794948 45.9992 0.794948C45.8365 0.75311 45.6738 0.794948 45.5111 0.794948C45.2671 0.75311 45.1451 0.711272 44.901 0.794948C44.6977 0.836786 44.5756 0.836786 44.3723 0.878624C44.1689 0.878624 43.9249 0.962299 43.7215 1.00414C43.3554 1.08781 42.9487 1.17149 42.5827 1.17149C42.3386 1.17149 42.0132 1.08781 41.8099 1.17149C41.6878 1.21333 41.6065 1.38068 41.4845 1.46435C41.2811 1.67354 41.0777 1.8409 40.915 2.05009C40.7524 2.25927 40.5897 2.5103 40.5897 2.80317C40.5897 3.0542 40.7117 3.34706 40.8337 3.55625C40.9557 3.80728 40.9964 4.01647 40.7524 4.18382C40.4676 4.39301 40.1016 4.56036 39.7762 4.68587C39.5322 4.76955 39.3288 4.81139 39.1661 4.64404C39.0848 4.6022 39.0441 4.47668 38.9627 4.39301C38.8814 4.35117 38.7594 4.39301 38.678 4.43485C38.434 4.51852 38.1899 4.6022 37.9459 4.64404C37.7832 4.68587 37.6612 4.76955 37.4985 4.76955C37.3358 4.81139 37.2138 4.68587 37.0104 4.72771C36.7664 4.76955 36.4817 4.89506 36.2376 4.89506C36.0343 4.89506 35.7902 4.81139 35.6275 4.72771C35.5462 4.68587 35.5055 4.6022 35.3835 4.64404C35.3021 4.64404 35.1801 4.76955 35.1395 4.85323C35.0581 4.9369 35.0581 5.06242 34.9768 5.14609C34.8954 5.27161 34.8547 5.35528 34.7734 5.48079C34.6514 5.68998 34.5294 5.89917 34.4073 6.10836C34.326 6.23388 34.2446 6.44307 34.1226 6.56858C34.0819 6.65226 33.9599 6.69409 33.8786 6.73593C33.6752 6.86144 33.4719 7.0288 33.2685 7.15431C32.9024 7.44718 32.5364 7.78188 32.1703 8.07475C31.8856 8.28394 31.4789 8.40945 31.1535 8.5768C30.9501 8.66048 30.7468 8.74415 30.5434 8.82783C30.462 8.86967 30.34 8.86967 30.2993 8.95334C30.218 9.03702 30.1773 9.12069 30.1367 9.24621C29.974 9.4554 29.7706 9.70643 29.6486 9.95745C29.5672 10.1248 29.5265 10.2503 29.4452 10.4177C29.3639 10.6269 29.2418 10.836 29.2012 11.0871C29.0385 11.5473 29.0385 12.0493 28.8351 12.5096C28.7538 12.7606 28.5911 13.0116 28.469 13.2626C28.2657 13.681 28.225 14.1831 28.1843 14.6433C28.1437 14.8943 28.1843 15.229 28.225 15.4801C28.2657 15.7729 28.2657 16.0658 28.2657 16.3587C28.2657 16.6515 28.0623 16.9862 27.8996 17.1954C27.7369 17.4046 27.4522 17.4883 27.2489 17.6975C27.0862 17.8648 26.8828 18.0322 26.8014 18.2832C26.7608 18.3669 26.8014 18.4924 26.8014 18.6179C26.7608 18.8689 26.6794 19.0781 26.6794 19.3291C26.6388 19.622 26.6388 19.9149 26.6388 20.2496C26.6388 20.4169 26.6388 20.5424 26.6388 20.7098C26.6388 20.8771 26.6794 21.0027 26.7201 21.1282C26.7201 21.2119 26.7201 21.3374 26.7201 21.421C26.7201 21.5466 26.8014 21.6721 26.8014 21.7557C26.8828 22.0486 26.9235 22.2996 26.9641 22.5925C27.0048 22.8435 27.1268 23.0946 27.1675 23.3456C27.2895 23.6803 27.3302 24.015 27.4115 24.3915C27.4522 24.6426 27.4522 24.9354 27.4929 25.1865C27.5336 25.3956 27.5742 25.6048 27.5742 25.814C27.5742 26.1487 27.4929 26.4416 27.4929 26.7763C27.4929 27.3202 27.6963 27.8641 27.8183 28.408C27.8589 28.5753 27.8996 28.7008 27.9403 28.8682C26.5981 26.1906 25.866 23.1364 25.866 19.9149C25.866 15.9821 26.9641 12.3422 28.8758 9.28805C29.6892 7.99107 30.6247 6.77777 31.7229 5.73182C35.1801 2.25928 39.9389 0.125542 45.1451 0.125542C45.5518 0.125542 45.9992 0.125541 46.4059 0.167379C48.9277 0.125541 51.3681 0.836786 53.5644 1.92457Z" fill="url(#paint2_linear_25_489)"/>
<path fill-rule="evenodd" clip-rule="evenodd" d="M34.082 19.2873C40.305 20.2914 39.9389 22.0067 47.1787 19.9567C54.4186 17.9066 59.6247 6.73588 59.6247 6.73588C59.6247 6.73588 59.9908 5.89913 59.6654 5.39707C59.5434 5.18788 58.6079 5.60626 58.6079 5.60626C58.7706 9.20432 53.8898 16.6515 48.3583 18.7852C47.7482 18.9944 47.1787 19.0781 46.6093 19.2036C46.3653 19.0781 45.7145 18.4505 48.7243 16.3586C52.3036 13.8902 53.8898 12.9697 53.5644 10.3758C53.239 7.78183 56.4115 3.72355 56.4115 3.72355C56.4115 3.72355 56.6556 2.63577 56.0455 1.96636C55.2727 1.08777 53.5644 1.96636 53.5644 1.96636C53.5644 1.96636 53.117 7.02875 46.894 9.74822C40.671 12.4677 37.1731 11.1289 34.8141 10.3758C32.4144 9.6227 31.7229 5.56442 31.7229 5.56442C31.7229 5.56442 29.6893 5.14604 28.9571 6.44302C28.4284 7.40529 29.2012 8.61859 29.2012 8.61859C29.2012 8.61859 32.9838 10.0411 36.3597 11.3799C39.7355 12.7187 46.2433 11.5054 48.521 10.3758C50.8393 9.24616 50.8393 7.40529 52.6696 5.73178C53.4424 5.06237 54.2152 4.56031 54.866 4.26745C54.866 4.26745 52.8323 7.48897 53.0764 9.74822C53.3204 12.0075 51.9375 11.9238 48.521 15.8984C46.1212 18.6597 44.0469 19.5801 43.0301 19.8312C40.427 20.0822 38.0273 19.7893 34.8141 18.8689C29.5672 17.4046 26.4354 15.0616 26.4354 15.0616C26.4354 15.0616 25.988 14.8524 25.8253 15.3545C25.744 15.5637 26.232 16.1913 26.232 16.1913C26.232 16.1913 27.859 18.2413 34.082 19.2873Z" fill="url(#paint3_linear_25_489)"/>
<path fill-rule="evenodd" clip-rule="evenodd" d="M38.4748 38.2817C38.4748 38.2817 36.9292 37.2776 35.7904 34.2234C34.6515 31.1693 34.7735 31.3785 32.6179 29.4539C30.4622 27.5294 26.7202 25.6467 26.7202 25.6467C26.7202 25.6467 26.4762 25.7303 26.4762 25.814C26.4762 26.1906 26.9236 26.2742 26.9236 26.2742C26.9236 26.2742 30.4215 27.8222 32.6179 30.2907C34.8142 32.7591 37.1733 37.1939 35.5057 36.9429C35.5057 36.9429 35.8717 38.0307 36.7665 38.2817C37.6206 38.5327 38.4748 38.2817 38.4748 38.2817Z" fill="url(#paint4_radial_25_489)"/>
<path d="M53.8086 23.5129C54.5407 22.718 55.3948 21.6721 58.8927 21.6302C62.3906 21.5884 64.1802 22.3833 64.1802 22.3833C64.1802 22.3833 64.9123 22.1741 64.9937 21.2119C65.075 20.2496 64.3429 19.7894 64.3429 19.7894C64.3022 20.0822 63.9362 22.0904 60.967 20.919C60.967 20.8771 62.0246 19.9149 62.2279 17.9067C62.472 15.8984 63.1634 13.0116 63.1634 13.0116C63.1634 13.0116 63.5701 12.3004 63.3261 11.7146C63.2447 11.5055 62.5533 11.4218 62.5533 11.4218C63.1634 15.4801 61.6585 20.3333 60.0316 20.919C58.0792 20.9608 55.6795 21.2955 54.5813 22.0486C53.2391 22.969 51.8969 27.0692 51.0428 29.956C50.8394 30.6672 50.392 31.4621 49.8226 32.2152C47.6669 32.7591 48.3583 30.0815 47.4229 29.2866C46.4874 28.4916 44.7384 28.91 43.5589 28.4916C42.4201 28.0314 42.0947 27.111 40.8745 26.9436C39.6543 26.7763 37.702 29.1611 35.4649 28.1988C33.2279 27.2365 25.8254 18.1995 25.8254 18.1995C25.8254 18.1995 25.1746 18.0322 25.0119 18.4924C24.8899 18.8689 25.7441 19.8312 25.7441 19.8312C25.7441 19.8312 30.9095 27.8222 35.831 28.8682C40.7525 29.9141 45.2265 28.9519 46.7721 30.2907C48.3177 31.6713 48.4397 33.8469 48.4397 33.8887C46.8534 35.6459 44.9418 37.1521 44.047 37.6123C42.5014 38.4072 39.9797 38.9511 39.9797 38.9511C40.3457 39.3695 41.0372 39.7042 41.7693 39.9134C42.8675 40.2063 43.5589 39.6624 43.5589 39.6624C43.5589 39.6624 42.9488 39.1185 43.7623 38.4072C45.8366 36.6082 47.3415 35.8551 49.4972 35.3112C50.7987 34.9765 51.2055 35.6041 51.3682 35.3949C53.4018 36.0643 54.9881 34.5163 56.6963 33.052C58.4046 31.6295 60.6417 31.4203 60.6417 31.4203C60.6417 31.4203 61.7805 31.2111 62.1059 30.7091C62.3906 30.2488 61.7398 29.7049 61.7398 29.7049C61.7398 29.7049 60.7637 30.1233 58.8927 31.0856C57.0624 32.0479 55.0694 34.851 52.7917 34.7673C51.5309 34.7255 51.8156 33.4285 51.6936 33.2193C51.6936 33.1357 51.6936 33.052 51.6936 32.9265C51.6529 32.006 51.4495 31.1274 51.4495 30.458C51.4495 30.2907 51.4495 30.1233 51.4902 29.956C51.8156 28.91 53.0764 24.266 53.8086 23.5129ZM49.8633 32.1734C49.4565 32.7173 49.0091 33.2612 48.521 33.8051L49.8633 32.1734ZM51.6122 33.5959C51.6529 33.8051 51.6936 34.0143 51.6529 34.2653C51.6529 34.3908 51.6122 34.4745 51.5308 34.5163C51.4495 34.5581 51.4088 34.5581 51.3275 34.5581C51.2461 34.6 51.1241 34.6 51.0428 34.6418C50.8801 34.6837 50.7174 34.6418 50.5954 34.6418C50.4327 34.6418 50.27 34.6418 50.1073 34.6418C50.0259 34.6418 49.9446 34.6 49.8633 34.6C49.7819 34.6 49.6599 34.6 49.6192 34.5581C49.4565 34.4745 49.3345 34.2653 49.2125 34.2234C49.2125 34.0561 49.2125 33.9306 49.2938 33.8051C49.2938 33.7632 49.3345 33.7214 49.3345 33.6377C49.3752 33.554 49.3752 33.4704 49.4159 33.3867C49.4972 33.1775 49.5785 32.9683 49.7412 32.801C49.7819 32.7173 49.8632 32.5918 49.9039 32.5081C49.9853 32.3826 50.0666 32.2989 50.148 32.2152C50.27 32.0897 50.392 31.9642 50.5547 31.8805C50.6767 31.7968 50.8801 31.7132 51.0428 31.755C51.2055 31.7968 51.2461 32.006 51.2868 32.1315C51.3275 32.2152 51.3275 32.3407 51.3682 32.4244C51.4088 32.5499 51.4495 32.6754 51.4902 32.801C51.5309 32.9683 51.5309 33.0938 51.5715 33.2612C51.5715 33.3449 51.5715 33.4704 51.6122 33.5959Z" fill="url(#paint5_linear_25_489)"/>
<path fill-rule="evenodd" clip-rule="evenodd" d="M29.6487 5.98286C29.6487 5.98286 30.5028 7.82373 32.7398 9.49724C32.7398 9.49724 32.0077 6.81962 31.479 5.73183C31.479 5.73183 30.7469 5.02058 29.6487 5.98286Z" fill="#FFFF0E"/>
<path fill-rule="evenodd" clip-rule="evenodd" d="M41.4033 11.6309C41.4033 11.6309 42.9082 11.0034 43.3963 11.2544C43.3963 11.2126 41.9321 11.6309 41.4033 11.6309Z" fill="#FFFF0E"/>
<path fill-rule="evenodd" clip-rule="evenodd" d="M46.4874 10.1666C46.7721 10.0829 47.0568 9.99927 47.3009 9.87376C47.5449 9.79008 47.7483 9.66457 47.9923 9.53906C48.277 9.3717 48.5617 9.20435 48.8058 8.99516C48.8871 8.95332 48.9278 8.91149 49.0092 8.86965C49.0905 8.82781 49.1718 8.74414 49.2532 8.7023C49.3345 8.66046 49.3752 8.57678 49.4565 8.53495C49.5379 8.49311 49.5786 8.40943 49.6599 8.36759C49.7819 8.28392 49.9039 8.15841 49.9853 8.07473C50.026 8.03289 50.0667 7.99105 50.148 7.90738C50.1887 7.86554 50.2293 7.86554 50.27 7.86554C50.27 7.90738 50.2293 7.99105 50.2293 8.03289C50.1887 8.11657 50.148 8.15841 50.1073 8.24208C50.026 8.40943 49.8633 8.49311 49.7413 8.66046C49.6599 8.74414 49.5786 8.82781 49.4565 8.91149C49.3345 8.99516 49.1718 9.07884 49.0092 9.16251C48.8465 9.24619 48.6838 9.28803 48.5617 9.3717C48.4397 9.45538 48.277 9.53906 48.155 9.58089C48.0737 9.62273 47.9516 9.70641 47.8703 9.74825C47.7889 9.79008 47.7076 9.83192 47.6263 9.87376C47.5042 9.95743 47.3822 9.99927 47.2602 10.0829C47.1789 10.1248 47.1382 10.1248 47.0568 10.1666C46.9348 10.2503 46.7314 10.2921 46.5687 10.2921C46.5281 10.2921 46.4467 10.2921 46.4061 10.2921C46.3654 10.2921 46.3247 10.2503 46.3247 10.2503C46.4061 10.2085 46.4467 10.1666 46.4874 10.1666Z" fill="#FFFF0E"/>
<path fill-rule="evenodd" clip-rule="evenodd" d="M50.5548 7.4472C50.4735 7.48904 50.4328 7.53087 50.3515 7.61455C50.3515 7.65639 50.3108 7.69823 50.3921 7.69823C50.4735 7.69823 50.5142 7.65639 50.5955 7.57271C50.6362 7.53087 50.6769 7.4472 50.6362 7.40536C50.5955 7.36352 50.5142 7.40536 50.4735 7.4472H50.5548Z" fill="#FFFF0E"/>
<path fill-rule="evenodd" clip-rule="evenodd" d="M53.8493 2.05007C53.8086 2.13375 53.7273 2.21742 53.6866 2.3011C53.6459 2.38478 53.6459 2.42661 53.6053 2.51029C53.5646 2.6358 53.5239 2.80315 53.4832 2.92867C53.4019 3.1797 53.3612 3.47256 53.2392 3.72359C53.1985 3.8491 53.1579 3.93278 53.0765 4.05829C53.0358 4.10013 52.9952 4.18381 52.9952 4.22564C52.9545 4.26748 52.9545 4.30932 52.9138 4.393C52.8731 4.43483 52.8731 4.47667 52.8325 4.51851C52.7918 4.56035 52.7918 4.64402 52.7511 4.68586C52.7104 4.7277 52.6291 4.85321 52.6698 4.89505C52.7105 4.89505 52.7104 4.85321 52.7511 4.85321C52.7918 4.81138 52.8731 4.76954 52.9138 4.68586C53.0358 4.60219 53.1172 4.47667 53.1985 4.35116C53.2392 4.30932 53.2799 4.26748 53.3205 4.18381C53.3612 4.10013 53.4426 4.05829 53.4832 3.97462C53.5646 3.8491 53.6866 3.72359 53.7679 3.63991C53.8086 3.59808 53.8493 3.5144 53.89 3.47256C53.9306 3.43072 53.9713 3.38889 54.012 3.30521C54.1747 3.13786 54.2967 2.97051 54.4594 2.80315C54.5814 2.67764 54.6627 2.51029 54.7848 2.38478C54.8661 2.25926 54.9475 2.13375 54.9881 2.00824C55.0288 1.9664 55.0695 1.84088 55.0695 1.79905C55.0288 1.71537 54.9475 1.67353 54.8661 1.67353C54.7441 1.67353 54.6221 1.67353 54.5001 1.67353C54.3781 1.71537 54.2967 1.75721 54.1747 1.79905C54.0933 1.84088 54.012 1.92456 53.89 1.9664C53.8493 2.05007 53.7679 2.09191 53.8493 2.05007Z" fill="#FFFF0E"/>
<path fill-rule="evenodd" clip-rule="evenodd" d="M54.8252 4.43489C54.7846 4.51856 54.7439 4.60224 54.7032 4.68591C54.6626 4.72775 54.6219 4.81143 54.5812 4.85327C54.4998 4.97878 54.4592 5.10429 54.3778 5.18797C54.2558 5.39716 54.0931 5.60635 54.0118 5.81554C53.9711 5.89921 53.9304 5.98289 53.8898 6.06657C53.8491 6.15024 53.8084 6.27576 53.8084 6.35943C53.7677 6.44311 53.7677 6.52678 53.7271 6.6523C53.7271 6.73597 53.6864 6.81965 53.6864 6.90332C53.7677 6.81965 53.8084 6.69414 53.8898 6.61046C53.9304 6.52678 53.9711 6.44311 54.0524 6.40127C54.1338 6.35943 54.1745 6.27576 54.2151 6.19208C54.2558 6.1084 54.3372 6.06657 54.3778 5.98289C54.4185 5.89922 54.4592 5.85738 54.4999 5.7737C54.5405 5.73186 54.5812 5.64819 54.6219 5.56451C54.6626 5.48084 54.7032 5.39716 54.7439 5.31348C54.7846 5.14613 54.8659 4.97878 54.9066 4.81143C54.9066 4.72775 54.9473 4.64408 54.9066 4.5604C54.9066 4.51856 54.8252 4.35121 54.8252 4.43489Z" fill="#FFFF0E"/>
<path fill-rule="evenodd" clip-rule="evenodd" d="M53.4832 7.15432C53.4425 7.27983 53.4019 7.36351 53.4019 7.48903C53.4019 7.53086 53.4019 7.5727 53.4019 7.5727C53.4425 7.5727 53.4832 7.5727 53.4832 7.53086C53.5239 7.53086 53.5239 7.48903 53.5239 7.44719C53.5645 7.40535 53.6052 7.32167 53.5645 7.238C53.5645 7.15432 53.4832 7.11249 53.4425 7.19616L53.4832 7.15432Z" fill="#FFFF0E"/>
<path fill-rule="evenodd" clip-rule="evenodd" d="M51.4902 12.8862C51.2868 13.0953 51.0021 13.3045 50.8394 13.5556C50.8394 13.5974 50.7174 13.6811 50.7581 13.7229C50.7987 13.7647 50.8801 13.7229 50.9207 13.7229C51.0428 13.6811 51.1648 13.5974 51.2868 13.5556C51.3681 13.5137 51.4495 13.43 51.5308 13.3882C51.7342 13.2627 51.8969 13.0953 52.0596 12.8862C52.1409 12.8025 52.1816 12.7188 52.2223 12.6351C52.2223 12.5933 52.263 12.5096 52.263 12.5096C52.2223 12.3841 51.9782 12.5096 51.9376 12.5514C51.8969 12.5933 51.8156 12.6351 51.7749 12.677C51.7342 12.7188 51.6935 12.7606 51.6529 12.7606C51.6122 12.8025 51.5715 12.8443 51.4902 12.8862C51.4902 12.928 51.4495 12.9698 51.4902 12.8862Z" fill="#FFFF0E"/>
<path fill-rule="evenodd" clip-rule="evenodd" d="M50.514 13.932C50.4326 13.9739 50.3513 14.0157 50.3106 14.0576C50.3106 14.0994 50.2293 14.1412 50.2699 14.1831C50.3106 14.2249 50.3919 14.1831 50.3919 14.1831C50.4326 14.1831 50.4733 14.1412 50.514 14.0994C50.514 14.0157 50.514 14.0157 50.514 13.932Z" fill="#FFFF0E"/>
<path fill-rule="evenodd" clip-rule="evenodd" d="M45.5112 18.8271C45.3485 18.9526 45.1451 19.0781 44.9418 19.2036C44.6977 19.3291 44.4537 19.4128 44.2503 19.5383C43.8843 19.7475 43.5182 19.9149 43.1521 20.0822C43.1115 20.124 42.542 20.3332 42.7454 20.4588C42.8268 20.5006 42.9488 20.5006 43.0301 20.5006C43.1115 20.5006 43.1928 20.5424 43.2742 20.5424C43.3555 20.5424 43.4368 20.5424 43.5182 20.5424C43.9656 20.5424 44.4537 20.4169 44.8604 20.2496C44.9418 20.2077 45.0638 20.1659 45.1451 20.124C45.1858 20.0822 45.2265 20.0404 45.3078 19.9985C45.3892 19.9149 45.4705 19.8312 45.5112 19.7057C45.5925 19.5383 45.6332 19.4128 45.6332 19.2036C45.6332 19.1199 45.5925 19.0781 45.5519 18.9944C45.5519 18.9526 45.5112 18.9107 45.5112 18.8271Z" fill="#FFFF0E"/>
<path fill-rule="evenodd" clip-rule="evenodd" d="M42.3387 20.2496C42.2574 20.2078 42.1354 20.1241 42.0133 20.1241C41.9727 20.1241 41.932 20.1241 41.8913 20.1241C41.81 20.1241 41.688 20.1659 41.6066 20.2078C41.5253 20.2914 41.7286 20.3751 41.81 20.4169C41.8913 20.4588 42.054 20.4588 42.1354 20.4169C42.2167 20.4169 42.3387 20.3333 42.3387 20.2496C42.3794 20.2496 42.3794 20.2496 42.3794 20.2496H42.3387Z" fill="#FFFF0E"/>
<path fill-rule="evenodd" clip-rule="evenodd" d="M48.2363 18.9526C48.6431 18.8271 49.0498 18.6597 49.4159 18.4505C49.5786 18.3668 49.7006 18.2832 49.8633 18.1995C49.9446 18.1577 50.0666 18.074 50.148 18.0321C50.1886 18.0321 50.4327 17.8648 50.4734 17.9485C50.514 18.0321 50.27 18.1995 50.2293 18.2413C50.148 18.325 50.0259 18.4087 49.9039 18.4924C49.8226 18.576 49.7006 18.576 49.6192 18.6597C49.4972 18.7434 49.3752 18.7852 49.2125 18.8689C49.1311 18.9107 49.0091 18.9526 48.9278 18.9944C48.8464 19.0363 48.7651 19.0363 48.6837 19.0781C48.6431 19.0781 48.5617 19.0781 48.521 19.0781C48.4397 19.0363 48.277 19.0781 48.2363 18.9526Z" fill="#FFFF0E"/>
<path fill-rule="evenodd" clip-rule="evenodd" d="M57.3062 21.2537C57.5096 21.2537 57.7537 21.2955 57.957 21.2537C58.1197 21.2118 58.2417 21.2118 58.4044 21.17C58.6891 21.1282 59.0145 21.0445 59.2992 21.0445C59.4212 21.0445 59.5433 21.0445 59.6653 21.0445C59.7466 21.0445 59.828 21.0445 59.8686 21.0445C59.9093 21.0445 59.9907 21.0863 59.9907 21.1282C60.072 21.2118 59.9907 21.2118 59.95 21.2118C59.828 21.2537 59.7466 21.3374 59.6246 21.3374C59.4212 21.3792 59.2585 21.421 59.0552 21.4629C58.9332 21.4629 58.8111 21.4629 58.6484 21.4629C58.4858 21.5047 58.3231 21.5047 58.1197 21.5047C57.957 21.5047 57.835 21.5047 57.6723 21.5047C57.5503 21.5047 57.4689 21.4629 57.3469 21.4629C57.2656 21.4629 57.1842 21.4629 57.1436 21.421C57.1842 21.4629 57.1029 21.3792 57.3062 21.2537Z" fill="#FFFF0E"/>
<path fill-rule="evenodd" clip-rule="evenodd" d="M62.1873 21.4629C62.4313 21.5047 62.594 21.5047 62.838 21.4629C63.0007 21.421 63.1634 21.421 63.2854 21.3792C63.4888 21.3373 63.7328 21.2537 63.9362 21.1281C64.0582 21.0445 64.2616 20.919 64.3836 20.9608C64.5056 21.0026 64.6276 21.1281 64.6276 21.2537C64.6276 21.421 64.465 21.5047 64.3836 21.5884C64.2209 21.7139 63.9362 21.7976 63.7328 21.7976C63.4888 21.7976 63.2041 21.7557 62.9601 21.7139C62.8787 21.7139 62.7973 21.672 62.716 21.672C62.6347 21.6302 62.472 21.6302 62.1873 21.4629Z" fill="#FFFF0E"/>
<path fill-rule="evenodd" clip-rule="evenodd" d="M62.7566 11.6728C62.7566 11.8402 62.6346 12.3004 62.838 12.4259C62.96 12.5096 63.0007 12.3004 63.0007 12.2167C63.0413 12.0912 62.96 11.7565 62.7566 11.6728Z" fill="#FFFF0E"/>
<path fill-rule="evenodd" clip-rule="evenodd" d="M26.4355 15.7729C26.6389 16.0239 26.7609 16.2749 27.0049 16.4004C27.1676 16.4841 27.2896 16.6096 27.4523 16.6515C27.615 16.6933 27.8184 16.7351 27.9811 16.7351C28.0624 16.7351 28.1031 16.7351 28.1031 16.6096C28.1031 16.5678 28.0624 16.4841 28.0217 16.4423C27.9811 16.3586 27.8997 16.3168 27.8184 16.2331C27.737 16.1494 27.6964 16.0657 27.615 15.9821C27.3303 15.731 27.0456 15.5637 26.6795 15.4382C26.5575 15.3963 26.5575 15.3963 26.4355 15.4382C26.3541 15.48 26.3541 15.48 26.3135 15.5637C26.3135 15.6892 26.3948 15.8147 26.4762 15.9402L26.4355 15.7729Z" fill="#FFFF0E"/>
<path fill-rule="evenodd" clip-rule="evenodd" d="M26.5982 19.6639C26.8829 20.166 27.249 20.5843 27.615 21.0446C27.8591 21.3374 28.0218 21.7558 28.3065 22.0487C28.3472 22.0905 28.8759 22.5507 28.8759 22.2997C28.8759 22.2578 28.7132 22.0068 28.7132 21.965C28.6319 21.8395 28.5505 21.6721 28.4285 21.5466C28.3471 21.4211 28.2251 21.3374 28.1845 21.2119C28.1031 21.0864 28.0218 21.0027 27.9404 20.8772C27.8184 20.7517 27.7371 20.5425 27.6557 20.417C27.5744 20.2915 27.4523 20.1241 27.371 19.9986C27.249 19.7894 27.0863 19.5802 26.8829 19.4965C26.8422 19.4547 26.7609 19.4129 26.6796 19.4547C26.4762 19.5802 26.5575 19.8312 26.5982 19.6639Z" fill="#FFFF0E"/>
<path fill-rule="evenodd" clip-rule="evenodd" d="M45.145 28.9937C45.5924 28.91 45.9178 28.8264 46.3652 28.9519C46.5686 28.9937 46.7719 29.0774 46.9753 29.1192C47.0973 29.1611 47.3007 29.2029 47.382 29.2866C47.4634 29.4121 47.4634 29.5795 47.3414 29.6631C47.2194 29.7886 46.9346 29.7468 46.7719 29.7468C46.4466 29.705 46.1619 29.6631 45.8365 29.5795C45.6738 29.5376 45.4297 29.4539 45.267 29.3284C45.2264 29.2866 45.0637 29.1192 45.145 28.9937Z" fill="#FFFF0E"/>
<path fill-rule="evenodd" clip-rule="evenodd" d="M51.0427 31.3366C50.8393 31.2948 50.7986 30.8764 50.88 30.7091C50.9206 30.6254 50.9613 30.458 51.0833 30.4162C51.1647 30.3744 51.2054 30.458 51.2867 30.458C51.2054 30.6672 51.0833 30.8346 50.9613 31.0019L51.0427 31.3366Z" fill="#FFFF0E"/>
<path fill-rule="evenodd" clip-rule="evenodd" d="M59.1367 31.2111C59.4214 31.0019 59.6248 30.8764 59.9502 30.7927C60.1129 30.7509 60.2756 30.7091 60.4383 30.6672C60.6416 30.6254 60.8043 30.4999 61.0077 30.4999C61.089 30.4999 61.1297 30.4999 61.2111 30.458C61.2924 30.458 61.2517 30.4162 61.3331 30.458C61.4958 30.5417 61.4144 30.6672 61.3331 30.7509C61.1297 30.9183 60.967 31.0019 60.723 31.0438C60.5603 31.0856 60.4789 31.1693 60.3163 31.2111C60.2349 31.253 60.1535 31.253 60.0722 31.2948C59.7061 31.3785 59.3401 31.2948 59.1367 31.2111Z" fill="#FFFF0E"/>
<path fill-rule="evenodd" clip-rule="evenodd" d="M33.2685 30.4998C33.4312 30.8764 33.5939 31.2529 33.8379 31.5876C33.9599 31.755 34.0413 31.8805 34.204 31.9642C34.326 32.006 34.448 32.0478 34.448 31.8386C34.448 31.755 34.3666 31.5876 34.326 31.5039C34.1633 31.2111 33.9599 31.0019 33.7972 30.7509C33.7159 30.6672 33.6345 30.4998 33.5532 30.458C33.4312 30.4162 33.2278 30.3325 33.2685 30.4998Z" fill="#FFFF0E"/>
<path fill-rule="evenodd" clip-rule="evenodd" d="M40.7932 38.9511C41.2406 38.8674 41.6067 38.7 42.0134 38.5745C42.1761 38.4909 42.3388 38.4909 42.5422 38.4909L42.5828 38.449C42.6235 38.449 42.7048 38.449 42.7455 38.449C42.7862 38.449 42.9896 38.4072 43.0302 38.449C43.1929 38.5745 42.8675 38.9092 42.7862 38.9511C42.5015 39.2439 42.0541 39.4113 41.6067 39.3694C41.4033 39.3276 41.1999 39.2439 40.9966 39.2021C40.8746 39.2021 40.5898 39.1184 40.5898 38.9511C40.6305 38.9929 40.6305 38.9511 40.7932 38.9511Z" fill="#FFFF0E"/>
<path fill-rule="evenodd" clip-rule="evenodd" d="M48.277 34.4745C47.911 34.7256 47.4636 34.9766 47.1788 35.395C46.9755 35.6878 47.3415 35.6042 47.5042 35.5623C47.6263 35.5205 47.7483 35.4786 47.8296 35.395C47.911 35.3113 47.9923 35.2695 48.0737 35.1439C48.155 35.0603 48.1957 35.0184 48.277 34.9766C48.3177 34.8929 48.3584 34.7674 48.4397 34.7256C48.4397 34.6837 48.399 34.6837 48.399 34.6419L48.277 34.4745Z" fill="#FFFF0E"/>
<path fill-rule="evenodd" clip-rule="evenodd" d="M37.7833 28.408C38.068 28.2825 38.3527 28.1988 38.5967 28.0314C38.8408 27.9059 39.0848 27.7386 39.3289 27.6131C39.6543 27.4457 39.9796 27.2365 40.3457 27.1947C40.4677 27.1947 40.5897 27.111 40.7118 27.1947C40.8338 27.2365 40.8744 27.2784 40.9558 27.362C41.1592 27.6549 40.7524 27.9059 40.5491 28.0314C40.3864 28.1569 40.2643 28.2825 40.061 28.3661C39.8576 28.4498 39.6542 28.4917 39.4509 28.5753C39.1255 28.7008 38.7594 28.8682 38.3934 28.91C38.19 28.9519 38.0273 28.8682 37.8646 28.7427C37.7833 28.7008 37.7019 28.6172 37.6613 28.5335C37.6206 28.4917 37.5799 28.408 37.7833 28.408Z" fill="#FFFF0E"/>
<g filter="url(#filter1_d_25_489)">
<path d="M6 19.4286C6 20.2915 7.00877 21.1461 8.9687 21.9433C10.9286 22.7406 13.8014 23.4651 17.4228 24.0753C21.0443 24.6855 25.3436 25.1695 30.0753 25.4998C34.807 25.83 39.8784 26 45 26C50.1216 26 55.193 25.83 59.9247 25.4998C64.6564 25.1695 68.9557 24.6855 72.5772 24.0753C76.1987 23.4651 79.0714 22.7406 81.0313 21.9434C82.9912 21.1461 84 20.2915 84 19.4286" stroke="url(#paint6_linear_25_489)" stroke-width="3.58374" stroke-linecap="round" stroke-linejoin="round"/>
</g>
<defs>
<filter id="filter0_d_25_489" x="0.863302" y="10.5357" width="88.2734" height="15.9877" filterUnits="userSpaceOnUse" color-interpolation-filters="sRGB">
<feFlood flood-opacity="0" result="BackgroundImageFix"/>
<feColorMatrix in="SourceAlpha" type="matrix" values="0 0 0 0 0 0 0 0 0 0 0 0 0 0 0 0 0 0 127 0" result="hardAlpha"/>
<feOffset dy="1.67241"/>
<feGaussianBlur stdDeviation="1.67241"/>
<feComposite in2="hardAlpha" operator="out"/>
<feColorMatrix type="matrix" values="0 0 0 0 0 0 0 0 0 0 0 0 0 0 0 0 0 0 0.5 0"/>
<feBlend mode="normal" in2="BackgroundImageFix" result="effect1_dropShadow_25_489"/>
<feBlend mode="normal" in="SourceGraphic" in2="effect1_dropShadow_25_489" result="shape"/>
</filter>
<filter id="filter1_d_25_489" x="0.863302" y="15.9643" width="88.2734" height="16.8448" filterUnits="userSpaceOnUse" color-interpolation-filters="sRGB">
<feFlood flood-opacity="0" result="BackgroundImageFix"/>
<feColorMatrix in="SourceAlpha" type="matrix" values="0 0 0 0 0 0 0 0 0 0 0 0 0 0 0 0 0 0 127 0" result="hardAlpha"/>
<feOffset dy="1.67241"/>
<feGaussianBlur stdDeviation="1.67241"/>
<feComposite in2="hardAlpha" operator="out"/>
<feColorMatrix type="matrix" values="0 0 0 0 0 0 0 0 0 0 0 0 0 0 0 0 0 0 0.5 0"/>
<feBlend mode="normal" in2="BackgroundImageFix" result="effect1_dropShadow_25_489"/>
<feBlend mode="normal" in="SourceGraphic" in2="effect1_dropShadow_25_489" result="shape"/>
</filter>
<linearGradient id="paint0_linear_25_489" x1="45" y1="14" x2="45" y2="19.7143" gradientUnits="userSpaceOnUse">
<stop stop-color="#A09277"/>
<stop offset="1"/>
</linearGradient>
<radialGradient id="paint1_radial_25_489" cx="0" cy="0" r="1" gradientUnits="userSpaceOnUse" gradientTransform="translate(33.1742 10.4804) scale(30.9529 31.8393)">
<stop offset="0.00558659" stop-color="#9D9D94"/>
<stop offset="0.2018" stop-color="#DFD2C1"/>
<stop offset="0.3542" stop-color="#C2B5A2"/>
<stop offset="0.4919" stop-color="#D5C8B5"/>
<stop offset="0.6209" stop-color="#A09277"/>
<stop offset="0.7437" stop-color="#847B60"/>
<stop offset="0.8606" stop-color="#736950"/>
<stop offset="0.942708" stop-color="#A09277"/>
</radialGradient>
<linearGradient id="paint2_linear_25_489" x1="25.8386" y1="14.3136" x2="53.5573" y2="14.3136" gradientUnits="userSpaceOnUse">
<stop offset="0.0111732" stop-color="#D7CAB7"/>
<stop offset="0.2983" stop-color="#E1DAC0"/>
<stop offset="0.695" stop-color="#EDE0CE"/>
<stop offset="0.8659" stop-color="#C3B6A2"/>
<stop offset="1" stop-color="#9A968B"/>
</linearGradient>
<linearGradient id="paint3_linear_25_489" x1="25.7505" y1="11.2177" x2="59.7932" y2="11.2177" gradientUnits="userSpaceOnUse">
<stop offset="0.00558659" stop-color="#FFB80B"/>
<stop offset="0.388" stop-color="#FFB60C"/>
<stop offset="0.5789" stop-color="#FEAE10"/>
<stop offset="0.7274" stop-color="#FCA117"/>
<stop offset="0.8539" stop-color="#FA8E21"/>
<stop offset="0.9655" stop-color="#F7762E"/>
<stop offset="1" stop-color="#F66D33"/>
</linearGradient>
<radialGradient id="paint4_radial_25_489" cx="0" cy="0" r="1" gradientUnits="userSpaceOnUse" gradientTransform="translate(28.7392 29.0259) scale(9.78703 10.0673)">
<stop offset="0.00558659" stop-color="#FFB80B"/>
<stop offset="0.388" stop-color="#FFB60C"/>
<stop offset="0.5789" stop-color="#FEAE10"/>
<stop offset="0.7274" stop-color="#FCA117"/>
<stop offset="0.8539" stop-color="#FA8E21"/>
<stop offset="0.9655" stop-color="#F7762E"/>
<stop offset="1" stop-color="#F66D33"/>
</radialGradient>
<linearGradient id="paint5_linear_25_489" x1="25.0945" y1="25.668" x2="65.0095" y2="25.668" gradientUnits="userSpaceOnUse">
<stop offset="0.00558659" stop-color="#FFB80B"/>
<stop offset="0.388" stop-color="#FFB60C"/>
<stop offset="0.5789" stop-color="#FEAE10"/>
<stop offset="0.7274" stop-color="#FCA117"/>
<stop offset="0.8539" stop-color="#FA8E21"/>
<stop offset="0.9655" stop-color="#F7762E"/>
<stop offset="1" stop-color="#F66D33"/>
</linearGradient>
<linearGradient id="paint6_linear_25_489" x1="45" y1="26" x2="45" y2="19.4286" gradientUnits="userSpaceOnUse">
<stop stop-color="#A09277"/>
<stop offset="1"/>
</linearGradient>
</defs>
</svg>
