<svg width="40" height="40" viewBox="0 0 40 40" fill="none" xmlns="http://www.w3.org/2000/svg">
<path fill-rule="evenodd" clip-rule="evenodd" d="M39.9578 19.9789C39.9578 25.7656 37.5131 30.961 33.5932 34.6357C31.6965 36.3675 29.5047 37.7614 27.06 38.6907C25.5005 39.282 23.8145 39.7044 22.0864 39.8733C21.6649 39.9156 21.2012 39.9578 20.7797 39.9578C20.5269 39.9578 20.274 39.9578 19.9789 39.9578C19.0938 39.9578 18.2086 39.9156 17.3656 39.7889C14.3309 39.4087 11.5068 38.3105 9.06216 36.7054C8.80926 36.5365 8.59852 36.4098 8.38777 36.2408C7.96628 35.9451 7.58693 35.6495 7.16543 35.3116C5.1001 33.5798 3.37197 31.4256 2.14963 29.018C1.39094 27.4974 0.800842 25.8501 0.421496 24.1183C0.252898 23.2313 0.126451 22.3443 0.0421522 21.4573C2.57198e-06 20.9926 0 20.4858 0 19.9789C0 16.0507 1.13804 12.3337 3.11907 9.25028C3.96207 7.94088 4.93151 6.71596 6.06954 5.65999C9.65226 2.15417 14.5838 0 19.9789 0C20.4004 0 20.864 -6.45141e-07 21.2855 0.0422381C23.0137 0.168954 24.6997 0.506865 26.2592 1.01373C26.765 1.18268 27.2286 1.35164 27.6923 1.56283C28.0295 1.68955 28.3667 1.8585 28.7039 2.02746C30.6428 2.95671 32.413 4.22387 33.9304 5.74446C34.6891 6.50476 35.4057 7.3073 36.0379 8.15207C38.0189 10.8553 39.3677 14.0233 39.7892 17.5291C39.8735 18.2894 39.9578 19.1341 39.9578 19.9789Z" fill="url(#paint0_radial_25_539)"/>
<path fill-rule="evenodd" clip-rule="evenodd" d="M28.746 1.98516C28.6617 1.98516 28.6195 1.98516 28.5352 2.0274C28.3245 2.06964 28.1137 2.0274 27.903 1.98516C27.7344 1.94293 27.6501 1.85845 27.4394 1.85845C27.1865 1.81621 26.9757 1.73173 26.7228 1.68949C26.4699 1.64725 26.2592 1.56278 26.0063 1.4783C25.7955 1.39382 25.7112 1.43606 25.5426 1.4783C25.374 1.52054 25.2476 1.43606 25.079 1.39382C24.9104 1.30934 24.6996 1.30934 24.531 1.26711C24.0252 1.18263 23.5194 1.01367 23.0136 0.886956C22.7186 0.802479 22.4235 0.80248 22.0864 0.80248C21.8335 0.80248 21.6227 0.886956 21.3698 0.886956C21.2012 0.886956 21.0748 0.844718 20.9062 0.844718C20.7376 0.80248 20.569 0.844718 20.4004 0.844718C20.1475 0.80248 20.021 0.760241 19.7681 0.844718C19.5574 0.886957 19.4309 0.886957 19.2202 0.929196C19.0094 0.929196 18.7565 1.01367 18.5458 1.05591C18.1664 1.14039 17.7449 1.22487 17.3656 1.22487C17.1127 1.22487 16.7755 1.14039 16.5648 1.22487C16.4383 1.26711 16.354 1.43606 16.2276 1.52054C16.0168 1.73173 15.8061 1.90069 15.6375 2.11188C15.4689 2.32307 15.3003 2.57651 15.3003 2.87218C15.3003 3.12561 15.4267 3.42128 15.5532 3.63247C15.6796 3.88591 15.7218 4.0971 15.4689 4.26605C15.1738 4.47725 14.7945 4.6462 14.4573 4.77292C14.2044 4.8574 13.9936 4.89964 13.825 4.73068C13.7407 4.68844 13.6986 4.56172 13.6143 4.47725C13.53 4.43501 13.4035 4.47725 13.3192 4.51949C13.0663 4.60396 12.8134 4.68844 12.5605 4.73068C12.3919 4.77292 12.2655 4.8574 12.0969 4.8574C11.9283 4.89963 11.8018 4.77292 11.5911 4.81516C11.3382 4.8574 11.0432 4.98411 10.7903 4.98411C10.5795 4.98411 10.3266 4.89964 10.158 4.81516C10.0737 4.77292 10.0316 4.68844 9.90512 4.73068C9.82082 4.73068 9.69437 4.8574 9.65222 4.94187C9.56792 5.02635 9.56792 5.15307 9.48362 5.23755C9.39932 5.36426 9.35717 5.44874 9.27287 5.57545C9.14642 5.78665 9.01998 5.99784 8.89353 6.20903C8.80923 6.33575 8.72493 6.54695 8.59848 6.67366C8.55633 6.75814 8.42988 6.80038 8.34558 6.84261C8.13484 6.96933 7.92409 7.13829 7.71334 7.265C7.33399 7.56067 6.95465 7.89858 6.5753 8.19426C6.28025 8.40545 5.85876 8.53216 5.52156 8.70112C5.31081 8.7856 5.10007 8.87007 4.88932 8.95455C4.80502 8.99679 4.67857 8.99679 4.63642 9.08127C4.55212 9.16574 4.50997 9.25022 4.46782 9.37694C4.29922 9.58813 4.08848 9.84157 3.96203 10.095C3.87773 10.264 3.83558 10.3907 3.75128 10.5596C3.66698 10.7708 3.54053 10.982 3.49838 11.2354C3.32978 11.7001 3.32978 12.2069 3.11904 12.6716C3.03474 12.925 2.86613 13.1784 2.73969 13.4319C2.52894 13.8542 2.48679 14.3611 2.44464 14.8257C2.40249 15.0792 2.44464 15.4171 2.48679 15.6705C2.52894 15.9662 2.52894 16.2618 2.52894 16.5575C2.52894 16.8532 2.31819 17.1911 2.14959 17.4023C1.981 17.6135 1.68595 17.698 1.4752 17.9092C1.3066 18.0781 1.09586 18.2471 1.01156 18.5005C0.969407 18.585 1.01156 18.7117 1.01156 18.8384C0.969407 19.0918 0.885106 19.303 0.885106 19.5565C0.842957 19.8521 0.842954 20.1478 0.842954 20.4857C0.842954 20.6547 0.842954 20.7814 0.842954 20.9503C0.842954 21.1193 0.885102 21.246 0.927252 21.3727C0.927252 21.4572 0.927252 21.5839 0.927252 21.6684C0.927252 21.7951 1.01156 21.9218 1.01156 22.0063C1.09586 22.302 1.138 22.5554 1.18015 22.8511C1.2223 23.1045 1.34875 23.358 1.3909 23.6114C1.51735 23.9493 1.5595 24.2872 1.6438 24.6674C1.68595 24.9208 1.68595 25.2165 1.7281 25.4699C1.77025 25.6811 1.8124 25.8923 1.8124 26.1035C1.8124 26.4414 1.7281 26.7371 1.7281 27.075C1.7281 27.6241 1.93885 28.1732 2.0653 28.7223C2.10745 28.8912 2.14959 29.0179 2.19174 29.1869C0.800803 26.4836 0.0421143 23.4002 0.0421143 20.1478C0.0421143 16.1774 1.18015 12.5026 3.16118 9.41918C4.00417 8.10978 4.97361 6.88486 6.11165 5.82889C9.69437 2.32307 14.6259 0.1689 20.021 0.1689C20.4425 0.1689 20.9062 0.168899 21.3277 0.211138C23.9409 0.168899 26.4699 0.886957 28.746 1.98516Z" fill="url(#paint1_linear_25_539)"/>
<g opacity="0.5">
<g opacity="0.4">
<path opacity="0.4" fill-rule="evenodd" clip-rule="evenodd" d="M17.6608 25.5544V25.5121C17.7872 25.6389 17.9137 25.7656 17.9137 25.9345C17.8294 25.8923 17.7029 25.6389 17.6608 25.5544Z" fill="url(#paint2_linear_25_539)"/>
<path fill-rule="evenodd" clip-rule="evenodd" d="M39.7894 17.4868C39.7051 17.3178 39.6208 17.1911 39.4943 17.0644C39.2836 16.7687 38.9885 16.642 38.6513 16.5575C38.3984 16.473 38.1456 16.3463 37.9348 16.5575C37.7241 16.7687 37.5555 17.0644 37.429 17.2756C37.3447 17.4445 37.2183 17.7824 37.0075 17.8247C36.7968 17.8669 36.5439 17.5712 36.3753 17.4023C36.1645 17.1911 36.0381 16.8532 35.8273 16.6842C35.6587 16.5575 35.4058 16.4308 35.2372 16.3886C34.8579 16.2196 34.4364 16.1774 34.0149 16.1351C33.7198 16.1351 33.5091 15.9662 33.2562 15.8394C33.0033 15.7127 32.6661 15.6705 32.4132 15.6283C32.1603 15.586 31.9074 15.5438 31.6545 15.4593C31.4016 15.4171 31.1909 15.3748 30.9801 15.1636C30.7694 14.9102 30.6008 14.5723 30.3479 14.3611C29.8842 13.9387 29.3784 14.2344 28.7883 14.2344C28.3247 14.2344 27.9453 13.9387 27.4817 13.812C26.9338 13.6853 26.4701 13.6008 26.1329 13.1362C25.8379 12.7138 25.9222 12.2069 25.7536 11.7423C25.4164 10.813 24.1519 10.5596 23.2667 10.4751C22.5502 10.4329 21.918 10.6863 21.2436 10.6863C20.6535 10.6863 20.1477 10.5596 19.7683 11.0665C19.3468 11.6156 18.9253 12.2069 18.5881 12.7983C18.3352 13.2629 17.9137 13.7275 17.7451 14.2766C17.6608 14.5723 17.6608 14.868 17.6187 15.1636C17.5344 15.5015 17.2815 15.9662 17.0708 16.2618C16.86 16.5575 16.4385 16.7687 16.1013 16.9377C15.8063 17.1066 15.5955 17.3178 15.3426 17.5712C15.0476 17.8669 14.7525 18.1626 14.5418 18.5005C14.4575 18.6694 14.3732 18.8384 14.2046 18.9651C14.0781 19.0918 13.9095 19.1341 13.7831 19.2608C13.6566 19.3453 13.5723 19.472 13.488 19.5987C13.3194 19.7676 13.0244 19.8944 12.7715 19.9366C12.35 19.9366 11.9285 19.5987 11.5913 20.0633C11.3806 20.3168 11.1277 20.7814 11.1698 21.1193C11.212 21.415 11.4649 21.6684 11.6335 21.9218C11.9285 22.302 12.5607 22.9778 12.4343 23.5269C12.3921 23.7381 12.1814 23.8648 12.2657 24.1182C12.3078 24.3294 12.35 24.5406 12.35 24.7941C12.35 24.963 12.2657 25.2587 12.35 25.3854C12.4764 25.5544 12.8558 25.7233 13.0665 25.7655C13.488 25.9345 13.8674 26.2302 14.2889 26.4414C14.5839 26.6103 14.7525 26.8215 15.0476 26.906C15.3426 26.9905 15.5955 26.9482 15.8906 26.9905C16.0592 27.0327 16.2699 27.0327 16.4385 27.0749C16.565 27.1172 16.6914 27.2017 16.8179 27.2439C17.3237 27.3706 17.9137 27.2439 18.4617 27.2439C18.7989 27.2439 19.1361 27.3284 19.4311 27.1594C19.7683 26.9482 19.8526 26.6948 19.8526 26.3146C19.8526 25.9767 19.684 25.6811 19.5576 25.3432C19.5154 25.1742 19.4733 24.963 19.3468 24.7941C19.2625 24.6673 19.1361 24.6673 19.0096 24.5829C18.841 24.4561 18.7989 24.3294 18.546 24.2872C18.3774 24.245 18.2088 24.3294 18.0402 24.4139C17.8294 24.5829 17.4501 24.9208 17.4922 25.2164C17.5344 25.3432 17.6187 25.4699 17.7451 25.5544C17.7451 25.4276 17.7873 25.3009 17.8294 25.132C18.2509 25.2164 18.8832 25.3432 19.1782 25.6811C19.0939 25.9767 18.7146 26.1879 18.4617 26.1879C17.9559 26.1879 17.4501 26.2724 17.0708 25.8923C16.7336 25.5966 16.7336 25.1742 16.5228 24.7941C16.4385 24.5829 16.3542 24.4139 16.1856 24.245C16.0592 24.1182 15.9749 23.9915 15.8906 23.8226C15.722 23.5691 15.5534 23.189 15.8063 22.9356C16.0592 22.6821 16.5228 22.5132 16.8179 22.3442C17.2815 22.0908 17.7873 21.8373 18.2509 21.5417C18.9253 21.1615 19.4733 20.6547 20.2741 20.6124C20.9064 20.5702 21.6651 20.6969 22.1709 21.1193C22.5081 21.415 22.5923 21.7529 22.7609 22.133C22.9295 22.4709 23.1824 22.7244 23.4353 22.9356C23.8147 23.189 24.194 23.4424 24.5312 23.6958C24.9949 24.0338 25.3742 24.1605 25.7114 24.6673C26.2172 25.5121 26.4701 26.4414 26.723 27.4129C26.8916 27.8775 26.9759 28.3421 27.0602 28.849C27.1445 29.2291 27.3131 29.5248 27.4817 29.9049C27.6082 30.2428 27.7346 30.4963 27.9032 30.792C27.9875 30.9187 28.0718 31.0454 28.1139 31.2143C28.2404 31.8057 27.6503 32.2281 27.3553 32.6927C27.0181 33.1996 26.6387 33.6219 26.4701 34.2133C26.3437 34.6779 26.5123 34.8891 26.5966 35.3115C26.7652 36.0296 26.428 36.4519 25.9643 36.9588C25.7114 37.2122 25.4585 37.4234 25.1213 37.5924C24.2362 37.9725 23.4353 38.6484 22.7609 39.3664C22.6766 39.5776 22.2973 39.8733 22.1287 40C23.8568 39.831 25.5428 39.4086 27.1024 38.8173C29.547 37.8881 31.7388 36.4942 33.6355 34.7624C37.5555 31.1299 40.0001 25.8923 40.0001 20.1056C39.958 19.1341 39.8737 18.2893 39.7894 17.4868ZM17.4922 17.7402C17.4079 17.9936 16.7757 18.1203 16.5228 18.2048C16.4385 18.2471 16.3121 18.2893 16.2278 18.2048C16.017 18.0359 16.7336 17.4445 16.7336 17.4868L16.5228 17.4023C16.7336 17.4023 16.7757 17.1488 16.9443 17.1911C16.9865 17.1911 17.1551 17.2756 17.1972 17.3178C17.3658 17.36 17.5765 17.529 17.4922 17.7402ZM24.2362 13.0939C24.0676 13.9809 23.056 14.6568 22.2552 14.9102C21.8337 15.0369 21.4543 15.1214 21.0328 15.1214C20.6535 15.1214 20.232 15.2059 19.8526 15.1214C19.1782 14.9524 19.0096 14.4878 19.2204 14.1921C19.0939 13.8542 18.9253 13.5586 19.0518 13.2206C19.1782 12.9672 19.3047 12.7138 19.4733 12.5026C19.7683 12.0802 20.1898 12.0802 20.6535 11.9112C21.5808 11.6156 22.5924 11.2777 23.5196 11.7845C23.9411 12.0802 24.3205 12.5448 24.2362 13.0939ZM33.1719 31.8479C32.7926 32.9884 31.8231 33.5375 30.7694 33.9176C30.2214 34.1288 29.7156 34.4245 29.1677 34.6357C28.7883 34.8046 28.5354 34.8891 28.1982 34.7624C27.7346 34.5512 27.6082 34.1288 27.8189 33.6642C28.1139 33.1573 28.6619 32.7349 28.5354 32.1014C28.4511 31.679 28.409 31.3411 28.4933 30.9187C28.5776 30.2851 28.5776 29.6515 28.5776 29.0179C28.1561 29.8205 28.1139 29.1446 28.1561 28.68C28.1561 28.2999 28.2825 28.1309 28.6197 27.9197C29.6735 27.2017 31.1066 27.8775 32.0339 28.4688C32.624 28.849 33.0455 29.4826 33.2984 30.1161C33.467 30.7075 33.3826 31.2988 33.1719 31.8479ZM32.8347 19.9366C32.5397 19.9788 32.076 19.5565 31.8653 19.3875C31.6545 19.2185 31.4859 18.9651 31.3173 18.7539C31.1487 18.585 30.938 18.3738 30.8115 18.1626C30.6851 17.9091 30.6008 17.6135 30.4743 17.3178C30.3057 16.8954 30.1793 16.5575 29.9264 16.1351C29.8421 16.3885 29.8421 16.1351 30.0107 16.0506C30.1793 15.9662 30.4322 16.0506 30.6008 16.0506C31.0644 16.1351 31.3173 16.3463 31.6545 16.642C31.9917 17.0221 32.3711 17.3178 32.6661 17.698C32.919 17.9936 33.4669 18.585 33.4669 18.9651C33.5091 19.3453 33.1719 19.9366 32.8347 19.9366Z" fill="url(#paint3_linear_25_539)"/>
<path opacity="0.4" fill-rule="evenodd" clip-rule="evenodd" d="M36.038 8.10977C35.8694 8.27873 35.6165 8.36321 35.4058 8.53216C35.2372 8.65888 35.0686 8.87007 34.9 8.95455C34.6471 9.03903 34.3099 8.95455 34.0992 8.87007C33.5512 8.65888 33.214 8.44768 32.6239 8.65888C32.4553 8.74336 32.2867 8.70112 32.1181 8.74335C31.9495 8.78559 31.9495 8.87007 31.7388 8.87007C31.4016 8.87007 31.0644 8.53216 30.8536 8.32097C30.6007 8.0253 30.4743 8.0253 30.0949 8.0253C29.7156 8.0253 29.2941 8.10978 29.2098 8.5744C29.1255 9.08127 29.7577 9.50365 30.0949 9.75708C30.6007 10.1372 30.0528 10.2217 29.842 10.6019C29.6734 10.9398 30.0106 11.151 29.7577 11.4466C29.2098 12.038 27.9032 12.4604 27.1866 12.0802C26.6808 11.7845 26.4279 11.2354 26.0486 10.8131C25.8378 10.5596 25.5428 10.3907 25.332 10.1372C24.9948 9.79932 24.7419 9.3347 24.5733 8.87007C24.7419 9.3347 24.4469 8.65888 24.3626 8.10977C24.3204 7.85634 24.4469 7.68739 24.489 7.47619C24.5312 7.22276 24.4047 7.13828 24.2783 6.96933C24.0675 6.58918 23.7725 6.29351 24.0675 5.91336C24.2361 5.65993 24.4469 5.44874 24.6576 5.23754C24.8684 5.02635 25.1213 4.73068 25.4163 4.60396C25.4585 4.43501 24.9105 3.8859 24.7841 3.75919C24.489 3.42128 24.2361 2.99889 23.8989 2.70322C23.7725 2.5765 23.5196 2.44979 23.4353 2.32307C23.2667 1.98516 23.8146 1.52054 24.0254 1.35158C24.4469 1.05591 24.8262 1.01367 25.2899 1.01367C25.5849 1.01367 25.9221 1.01367 26.2593 1.05591C26.7651 1.22486 27.2288 1.39382 27.6924 1.60501C28.0296 1.73173 28.3668 1.90068 28.704 2.06964C30.6429 2.99889 32.4132 4.26605 33.9306 5.78664C34.7314 6.42023 35.4058 7.22276 36.038 8.10977Z" fill="url(#paint4_linear_25_539)"/>
<path opacity="0.4" fill-rule="evenodd" clip-rule="evenodd" d="M30.3058 12.3759C30.7273 12.4604 31.1488 12.5871 31.5282 12.756C31.486 12.8405 31.5282 12.925 31.5703 13.0095C31.4439 13.1362 31.191 13.3052 30.9802 13.3474C30.7273 13.3896 30.6009 13.3474 30.3901 13.2207C30.1794 13.094 29.9265 13.094 29.9686 12.8405C29.9686 12.5449 30.2637 12.4604 30.5166 12.4181H30.3058V12.3759Z" fill="url(#paint5_linear_25_539)"/>
<path opacity="0.4" fill-rule="evenodd" clip-rule="evenodd" d="M7.58705 36.1141C7.7135 36.1985 7.8821 36.283 8.00855 36.3252C7.75565 36.4097 7.4606 36.452 7.16556 36.452C7.12341 36.1985 6.95481 35.9029 6.11182 35.396C6.65976 35.6494 7.08126 35.8606 7.58705 36.1141Z" fill="url(#paint6_linear_25_539)"/>
<path opacity="0.4" fill-rule="evenodd" clip-rule="evenodd" d="M25.5849 33.1151C25.4163 33.4108 25.3741 33.7064 25.3741 34.0021C25.3741 34.2978 25.3741 34.5934 25.3741 34.8891C25.3741 35.3115 25.0791 35.5649 24.8262 35.8606C24.5312 36.2407 24.1518 36.4942 23.8146 36.7899C23.646 36.9588 23.5617 37.17 23.3931 37.339C23.2245 37.5079 23.0559 37.6346 22.9295 37.8036C22.7609 38.0148 22.7187 38.1415 22.508 38.2682C22.2551 38.4372 22.0865 38.6484 21.8757 38.8596C21.4964 39.1975 21.1592 39.5776 20.7798 39.8733C20.5269 39.8733 20.2741 39.8733 19.979 39.8733C19.0939 39.8733 18.2087 39.831 17.3657 39.7043C14.331 39.3242 11.5069 38.226 9.06226 36.6209C9.31515 36.6631 9.5259 36.7476 9.7788 36.7899C10.0317 36.8321 10.2846 36.9588 10.5375 37.0011C11.0011 37.1278 11.5912 37.0433 12.0549 37.0433C12.7714 37.0433 13.4458 37.17 14.1624 37.2545C14.6682 37.339 15.0475 37.4234 15.5533 37.2545C15.9748 37.1278 16.3963 36.9588 16.7335 36.7476C17.5343 36.283 18.4616 36.283 19.2625 35.8606C19.5997 35.6916 19.8947 35.396 20.2319 35.1848C20.4005 35.1003 20.6534 34.8891 20.8641 34.8469C21.0327 34.8046 21.1592 34.8046 21.3278 34.7202C21.7493 34.5512 22.1708 34.4667 22.5923 34.34C22.9295 34.2133 23.4774 33.9599 23.7725 33.7064C24.1518 33.3685 24.6576 32.8194 24.8262 32.3548C24.9527 32.0169 24.9527 31.7212 24.9527 31.3833C24.9527 31.2566 24.9527 31.0876 24.9527 30.9609C24.9527 30.792 24.9105 30.7075 24.8684 30.5808C24.7841 30.2429 24.9527 30.0739 25.037 29.7782C25.1213 29.5248 25.2056 29.2714 25.2899 28.9757C25.3741 28.5955 25.3742 28.3844 25.2477 28.0042C25.2056 27.8775 25.1213 27.6663 25.0791 27.5396C25.037 27.4129 25.037 27.2439 25.037 27.1172C25.037 27.2861 25.2477 27.7085 25.2899 27.8352C25.4163 28.1309 25.6692 28.3843 25.6692 28.7645C25.6692 29.1024 25.5849 29.3558 25.5006 29.6938C25.4163 30.0317 25.5427 30.2429 25.5427 30.5808C25.5427 30.7075 25.5427 30.8764 25.5849 31.0032C25.627 31.1721 25.6271 31.3411 25.6692 31.4678C25.7113 31.7634 25.9221 32.0169 26.0064 32.2703C26.0064 32.6505 25.7535 32.8617 25.5849 33.1151Z" fill="url(#paint7_linear_25_539)"/>
</g>
<path opacity="0.4" fill-rule="evenodd" clip-rule="evenodd" d="M10.2002 33.453C10.2424 34.4667 9.65226 35.3538 8.85142 35.9451C8.68282 36.0718 8.51422 36.1563 8.34562 36.2408C7.92413 35.9451 7.54478 35.6494 7.12329 35.3115C5.05796 33.5797 3.32982 31.4256 2.10748 29.018C1.34879 27.4974 0.758697 25.8501 0.37935 24.1183C0.210752 23.2313 0.0842992 22.3442 0 21.4572C0.0842992 21.3727 0.126449 21.3305 0.210748 21.246C0.210748 21.9219 0.463646 22.4287 0.632244 23.0623C0.758693 23.5269 0.927291 23.9915 1.05374 24.4562C1.13804 24.8363 1.22234 25.1742 1.47524 25.5121C1.64383 25.7233 1.77028 25.8078 2.02318 25.8923C2.19178 25.9768 2.36038 26.1035 2.52898 26.188C2.90832 26.3147 3.41412 26.4414 3.83562 26.3992C4.04636 26.3992 4.17281 26.3992 4.38356 26.4836C4.51001 26.5681 4.63646 26.6526 4.76291 26.7371C5.05795 26.9483 5.31085 27.1595 5.56375 27.4129C5.94309 27.8353 5.90094 28.3844 6.19599 28.849C6.44889 29.2291 6.78608 29.3559 7.24973 29.3559C8.13487 29.3559 8.89356 30.4118 9.35721 31.0454C9.77871 31.7635 10.1581 32.6927 10.2002 33.453Z" fill="url(#paint8_linear_25_539)"/>
</g>
<defs>
<radialGradient id="paint0_radial_25_539" cx="0" cy="0" r="1" gradientUnits="userSpaceOnUse" gradientTransform="translate(10.2453 7.69163) scale(33.4752 33.5459)">
<stop offset="0.00558659" stop-color="#B1FFFF"/>
<stop offset="0.2928" stop-color="#B1FDFF"/>
<stop offset="0.4362" stop-color="#AFF5FF"/>
<stop offset="0.5473" stop-color="#ACE8FF"/>
<stop offset="0.6173" stop-color="#A9DBFF"/>
<stop offset="0.6508" stop-color="#A2D7FE"/>
<stop offset="0.6994" stop-color="#8FCAFC"/>
<stop offset="0.757" stop-color="#6FB5F9"/>
<stop offset="0.8216" stop-color="#4399F4"/>
<stop offset="0.8913" stop-color="#0C75EE"/>
<stop offset="0.905" stop-color="#006DED"/>
</radialGradient>
<linearGradient id="paint1_linear_25_539" x1="0.00371598" y1="14.4832" x2="28.7286" y2="14.4832" gradientUnits="userSpaceOnUse">
<stop offset="0.0111732" stop-color="#B0E1FF"/>
<stop offset="0.2926" stop-color="#ADDEFF"/>
<stop offset="0.499" stop-color="#A5D5FF"/>
<stop offset="0.6813" stop-color="#98C5FF"/>
<stop offset="0.8488" stop-color="#85AEFF"/>
<stop offset="1" stop-color="#6D93FF"/>
</linearGradient>
<linearGradient id="paint2_linear_25_539" x1="17.6605" y1="25.696" x2="17.9261" y2="25.696" gradientUnits="userSpaceOnUse">
<stop stop-color="#E8DDFF"/>
<stop offset="1" stop-color="#AA8AD8"/>
</linearGradient>
<linearGradient id="paint3_linear_25_539" x1="11.121" y1="25.1512" x2="39.9409" y2="25.1512" gradientUnits="userSpaceOnUse">
<stop stop-color="#E8DDFF"/>
<stop offset="1" stop-color="#AA8AD8"/>
</linearGradient>
<linearGradient id="paint4_linear_25_539" x1="23.3597" y1="6.56409" x2="36.0462" y2="6.56409" gradientUnits="userSpaceOnUse">
<stop stop-color="#E8DDFF"/>
<stop offset="1" stop-color="#AA8AD8"/>
</linearGradient>
<linearGradient id="paint5_linear_25_539" x1="29.9663" y1="12.8502" x2="31.5549" y2="12.8502" gradientUnits="userSpaceOnUse">
<stop stop-color="#E8DDFF"/>
<stop offset="1" stop-color="#AA8AD8"/>
</linearGradient>
<linearGradient id="paint6_linear_25_539" x1="6.11999" y1="35.9494" x2="8.02094" y2="35.9494" gradientUnits="userSpaceOnUse">
<stop stop-color="#E8DDFF"/>
<stop offset="1" stop-color="#AA8AD8"/>
</linearGradient>
<linearGradient id="paint7_linear_25_539" x1="9.04936" y1="33.5713" x2="25.945" y2="33.5713" gradientUnits="userSpaceOnUse">
<stop stop-color="#E8DDFF"/>
<stop offset="1" stop-color="#AA8AD8"/>
</linearGradient>
<linearGradient id="paint8_linear_25_539" x1="0.0587565" y1="28.7308" x2="10.2249" y2="28.7308" gradientUnits="userSpaceOnUse">
<stop stop-color="#E8DDFF"/>
<stop offset="1" stop-color="#AA8AD8"/>
</linearGradient>
</defs>
</svg>
