<svg width="40" height="40" viewBox="0 0 40 40" fill="none" xmlns="http://www.w3.org/2000/svg">
<path fill-rule="evenodd" clip-rule="evenodd" d="M40 19.9999C40 21.8986 39.7466 23.7974 39.2397 25.5274C38.226 29.0717 36.2408 32.194 33.622 34.6413C31.7635 36.3713 29.5248 37.7637 27.075 38.692C24.8786 39.5359 22.471 40 19.9789 40C19.641 40 19.2608 40 18.9229 39.9578C18.416 39.9156 17.8669 39.8734 17.3601 39.8312C13.5164 39.3249 9.96832 37.7215 7.13833 35.3164C6.08236 34.4303 5.11088 33.4177 4.22387 32.3206C3.59029 31.4767 2.99894 30.6329 2.49208 29.7046C2.36536 29.4936 2.23865 29.2404 2.11193 29.0295C2.11193 29.0295 2.11193 29.0295 2.11193 28.9873C1.98522 28.7341 1.85849 28.5231 1.77402 28.27C1.43611 27.5105 1.14043 26.7088 0.887001 25.9071C0.718047 25.3164 0.549103 24.7257 0.422387 24.1349C0.337909 23.713 0.253432 23.2911 0.211193 22.8269C0.0844773 21.8986 0 20.9704 0 19.9999C0 19.4514 -7.73539e-06 18.9028 0.0844696 18.3543C0.126708 18.0168 0.168955 17.6792 0.211193 17.3417C0.464625 15.3585 1.01372 13.502 1.81626 11.772C2.1964 10.9281 2.66104 10.0842 3.1679 9.32474C4.01267 8.01672 4.98416 6.79308 6.12461 5.69603C9.71489 2.1939 14.6568 0.0419922 20.0634 0.0419922C20.2746 0.0419922 20.4857 0.0419922 20.6969 0.0419922C20.9081 0.0419922 21.1616 0.0419915 21.3727 0.0841858C22.5132 0.168574 23.6536 0.337352 24.7518 0.590518C25.3854 0.759295 26.019 0.928072 26.6104 1.13904C27.0327 1.26563 27.4129 1.4344 27.8353 1.60318C28.1309 1.72976 28.4266 1.85635 28.7223 1.98293C28.7645 2.02512 28.8068 2.02512 28.8912 2.06732C30.8342 2.99559 32.6082 4.26142 34.1288 5.78042C34.34 5.99139 34.5512 6.20236 34.7624 6.45552C34.8891 6.6243 35.0581 6.75088 35.1848 6.91966C35.4382 7.17283 35.6494 7.46819 35.8606 7.72135C36.6632 8.73402 37.339 9.83107 37.9303 10.9703C38.6061 12.3205 39.1552 13.7551 39.5354 15.2319C39.7888 16.7087 40 18.3121 40 19.9999Z" fill="url(#paint0_radial_25_584)"/>
<path opacity="0.3" fill-rule="evenodd" clip-rule="evenodd" d="M28.7645 2.02554C28.68 2.02554 28.6378 2.02554 28.5533 2.06773C28.3421 2.10993 28.1309 2.06773 27.9197 2.02554C27.7508 1.98334 27.6663 1.89895 27.4551 1.89895C27.2017 1.85676 26.9905 1.77237 26.7371 1.73018C26.4836 1.68798 26.2724 1.60359 26.019 1.51921C25.8078 1.43482 25.7233 1.47701 25.5544 1.51921C25.3854 1.5614 25.2587 1.47701 25.0898 1.43482C24.9208 1.35043 24.7096 1.35043 24.5407 1.30823C24.0338 1.22385 23.5269 1.05507 23.0201 0.928485C22.7244 0.844097 22.4287 0.844096 22.0908 0.844096C21.8374 0.844096 21.6262 0.928485 21.3728 0.928485C21.2038 0.928485 21.0771 0.886291 20.9081 0.886291C20.7392 0.844097 20.5702 0.886291 20.4013 0.886291C20.1478 0.844097 20.0211 0.801903 19.7677 0.886291C19.5565 0.928486 19.4298 0.928484 19.2186 0.970679C19.0074 0.970679 18.754 1.05507 18.5428 1.09726C18.1626 1.18165 17.7402 1.26604 17.3601 1.26604C17.1066 1.26604 16.7687 1.18165 16.5575 1.26604C16.4308 1.30823 16.3464 1.47701 16.2196 1.5614C16.0084 1.77237 15.7973 1.94115 15.6283 2.15212C15.4593 2.36309 15.2904 2.61626 15.2904 2.91162C15.2904 3.16478 15.4171 3.46014 15.5438 3.67111C15.6705 3.92428 15.7128 4.13525 15.4593 4.30403C15.1637 4.515 14.7835 4.68378 14.4456 4.81036C14.1922 4.89475 13.981 4.93694 13.812 4.76817C13.7276 4.72597 13.6853 4.59939 13.6008 4.515C13.5164 4.47281 13.3897 4.515 13.3052 4.55719C13.0517 4.64158 12.7983 4.72597 12.5449 4.76817C12.3759 4.81036 12.2492 4.89475 12.0802 4.89475C11.9113 4.93694 11.7846 4.81036 11.5734 4.85256C11.32 4.89475 11.0243 5.02133 10.7709 5.02133C10.5597 5.02133 10.3062 4.93694 10.1373 4.85256C10.0528 4.81036 10.0106 4.72597 9.88384 4.76817C9.79937 4.76817 9.67265 4.89475 9.63041 4.97914C9.54593 5.06353 9.54593 5.19011 9.46146 5.2745C9.37698 5.40108 9.33474 5.48547 9.25026 5.61205C9.12355 5.82302 8.99683 6.034 8.87012 6.24497C8.78564 6.37155 8.70116 6.58252 8.57444 6.7091C8.5322 6.79349 8.40549 6.83569 8.32101 6.87788C8.10981 7.00446 7.89862 7.17324 7.68743 7.29982C7.30728 7.59518 6.92714 7.93274 6.54699 8.2281C6.25132 8.43907 5.82893 8.56565 5.49103 8.73443C5.27983 8.81882 5.06864 8.90321 4.85745 8.9876C4.77297 9.02979 4.64625 9.02979 4.60401 9.11418C4.51953 9.19857 4.4773 9.28296 4.43506 9.40954C4.2661 9.62051 4.05491 9.87368 3.92819 10.1268C3.84371 10.2956 3.80147 10.4222 3.717 10.591C3.63252 10.802 3.5058 11.0129 3.46356 11.2661C3.29461 11.7302 3.29461 12.2366 3.08342 12.7007C2.99894 12.9539 2.82999 13.207 2.70327 13.4602C2.49208 13.8821 2.44983 14.3885 2.4076 14.8526C2.36536 15.1058 2.4076 15.4433 2.44984 15.6965C2.49208 15.9919 2.49208 16.2872 2.49208 16.5826C2.49208 16.8779 2.28089 17.2155 2.11193 17.4265C1.94298 17.6374 1.64731 17.7218 1.43611 17.9328C1.26716 18.1016 1.05596 18.2703 0.971484 18.5235C0.929245 18.6079 0.971484 18.7345 0.971484 18.8611C0.929245 19.1142 0.844773 19.3252 0.844773 19.5784C0.802535 19.8737 0.802532 20.1691 0.802532 20.5066C0.802532 20.6754 0.802532 20.802 0.802532 20.9708C0.802532 21.1396 0.844763 21.2661 0.887002 21.3927C0.887002 21.4771 0.887002 21.6037 0.887002 21.6881C0.887002 21.8147 0.971484 21.9412 0.971484 22.0256C1.05596 22.321 1.0982 22.5742 1.14044 22.8695C1.18267 23.1227 1.30939 23.3759 1.35163 23.629C1.47835 23.9666 1.52059 24.3041 1.60506 24.6839C1.6473 24.937 1.64731 25.2324 1.68955 25.4856C1.73179 25.6965 1.77402 25.9075 1.77402 26.1185C1.77402 26.456 1.68955 26.7514 1.68955 27.089C1.68955 27.6375 1.90073 28.186 2.02745 28.7345C2.06969 28.9033 2.11192 29.0299 2.15416 29.1987C0.760286 26.4982 0 23.418 0 20.1691C0 16.2028 1.14044 12.5319 3.12566 9.45173C3.97043 8.14371 4.94192 6.92007 6.08236 5.86522C9.67265 2.36309 14.6146 0.211182 20.0211 0.211182C20.4435 0.211182 20.9081 0.211183 21.3305 0.253377C23.9493 0.211183 26.4836 0.88629 28.7645 2.02554Z" fill="url(#paint1_linear_25_584)"/>
<path opacity="0.1" fill-rule="evenodd" clip-rule="evenodd" d="M21.2462 29.3672C21.2462 29.3672 23.1047 32.1099 25.5968 34.3462C28.0889 36.5825 28.4268 38.1015 28.4268 38.1015C28.4268 38.1015 33.1153 36.1605 36.4521 31.5191C39.789 26.92 21.2462 29.3672 21.2462 29.3672Z" fill="black" fill-opacity="0.5"/>
<path opacity="0.4" fill-rule="evenodd" clip-rule="evenodd" d="M24.6253 0.548526C23.5271 0.29536 22.4288 0.126584 21.2462 0.0421953C21.035 0.0421953 20.7815 0 20.5703 0C21.035 0.253166 21.4996 0.717304 21.5841 1.22364C21.753 2.06752 22.0487 2.82702 22.1754 3.62871C22.3444 4.4304 22.3021 5.44307 21.922 6.16037C21.7108 6.62451 21.4151 7.00426 21.035 7.38401C20.7815 7.63717 20.5281 7.80595 20.3591 8.1435C20.1902 8.48106 19.979 8.77642 19.7678 9.07178C19.4721 9.53592 19.1342 10.0001 18.7541 10.422C18.6274 10.5908 18.5007 10.6752 18.3739 10.8439C18.2472 11.0549 18.1627 11.2659 17.9938 11.4347C17.6136 11.8144 17.0645 12.0676 16.5999 12.2364C15.9663 12.4895 15.4172 12.7427 14.8259 13.0802C13.9811 13.5444 13.2631 14.0929 12.2916 14.1351C11.9537 14.1351 11.6157 14.0929 11.2778 14.1351C10.8555 14.1773 10.4753 14.3461 10.0952 14.4305C9.75725 14.5148 9.3771 14.557 9.0392 14.6414C8.44785 14.7258 7.98322 14.9368 7.43412 15.0634C6.71606 15.2321 5.95577 15.1899 5.19547 15.3165C4.51966 15.4009 3.97055 15.4853 3.29474 15.3165C2.28101 15.0634 1.7319 14.5992 1.94309 13.5022C2.06981 12.7849 2.02758 12.2363 1.68967 11.73C0.887137 13.46 0.338027 15.3587 0.0845947 17.2997C0.54922 17.5106 1.09832 17.595 1.56295 17.6372C3.0413 17.806 4.64637 17.1309 5.99801 16.6246C6.67382 16.3714 7.39188 15.9916 8.15218 15.9073C8.95471 15.8229 9.63053 15.9073 10.4331 15.7385C13.1363 15.0634 15.7974 14.1351 18.2472 12.7005C19.2609 12.1098 19.6833 11.2659 20.4014 10.422C20.9927 9.6625 21.7108 9.07178 22.4288 8.43886C23.1469 7.80595 23.7805 7.21523 24.2029 6.37134C24.6675 5.48526 25.0476 4.4726 25.2588 3.50213C25.47 2.40508 25.1744 1.39241 24.6253 0.548526ZM24.4985 3.24896C24.4563 3.45993 24.4141 3.7131 24.3718 3.92407C24.2029 4.4726 23.865 5.02112 23.3581 5.27429C23.1469 5.40087 22.809 5.31648 22.6823 5.10551C22.5978 4.97893 22.5978 4.81015 22.5978 4.68357C22.5556 4.38821 22.5133 4.13504 22.5133 3.83968C22.5133 3.16457 22.5133 2.48946 22.4288 1.81435C22.5133 2.1941 22.4289 1.22363 23.0202 0.970469C23.3159 0.843886 23.7382 0.970469 23.9494 1.18144C24.2029 1.4768 24.2873 1.94094 24.3718 2.27849C24.4563 2.65824 24.5408 2.91141 24.4985 3.24896Z" fill="url(#paint2_linear_25_584)" fill-opacity="0.5"/>
<path opacity="0.4" fill-rule="evenodd" clip-rule="evenodd" d="M21.584 35.19C21.5417 35.19 21.4572 35.2322 21.415 35.2322L21.7951 35.2744C21.7951 35.2322 21.7107 35.19 21.584 35.19ZM21.584 35.19C21.5417 35.19 21.4572 35.2322 21.415 35.2322L21.7951 35.2744C21.7951 35.2322 21.7107 35.19 21.584 35.19ZM39.4087 15.1477C39.4087 15.654 39.2397 16.2026 39.2397 16.7089C39.2397 17.4262 39.113 17.9747 38.944 18.6498C38.8173 19.114 38.5639 19.4515 38.4372 19.9157C38.2682 20.422 38.0148 20.8861 37.7614 21.3503C37.2545 22.2785 36.7054 23.249 36.4942 24.3039C36.283 25.2743 36.2408 26.076 35.7761 26.9621C35.3115 27.806 34.6357 28.5233 34.1288 29.3672C33.9176 29.7469 33.7487 29.7469 33.3685 30.0001C32.9884 30.2955 32.6082 30.7174 32.2281 31.0128C31.4256 31.6457 30.6653 32.1098 29.6515 32.4896C29.018 32.7427 28.4266 32.9115 27.7508 32.9959C27.3284 33.0803 26.906 32.9959 26.4836 33.0803C25.8078 33.2069 25.1742 33.3756 24.4984 33.5866C23.4425 33.9242 22.3443 34.1351 21.2883 34.4727C20.528 34.6837 19.8099 34.8524 19.0496 34.979C18.585 35.0634 18.2049 35.3166 17.7402 35.2322C17.2756 35.1478 16.811 34.979 16.3464 34.8103C15.755 34.6415 15.2482 34.5993 14.6146 34.5993C13.7698 34.5993 12.7561 34.7259 11.8691 34.5571C10.8976 34.3883 9.96833 34.0929 8.99684 33.9242C8.4055 33.7976 7.98311 33.5444 7.434 33.3335C6.92714 33.0803 6.42028 33.0381 5.87118 32.8693C5.32208 32.7005 4.77298 32.4474 4.22388 32.3208C5.06865 33.4178 6.04014 34.4305 7.13834 35.3166C9.96833 37.7217 13.4741 39.325 17.3601 39.8314C17.867 39.8736 18.3738 39.958 18.9229 39.958C20.0634 39.7048 21.1616 39.3672 22.302 39.0297C24.2028 38.439 25.8501 37.2997 27.7508 36.7512C28.4689 36.5402 29.1024 36.3293 29.736 35.9917C30.2429 35.7385 30.7498 35.6963 31.2144 35.4854C32.9884 34.7259 34.2978 33.0381 35.1003 31.3503C35.4382 30.5908 35.7761 29.7469 36.452 29.1562C36.7054 28.9031 37.0433 28.7343 37.2545 28.4389C37.5079 28.1436 37.6769 27.806 37.9303 27.4684C38.3527 26.9199 38.7328 26.3292 39.113 25.7807C39.1552 25.6963 39.1975 25.6541 39.2397 25.5697C39.7466 23.7975 40 21.941 40 20.0422C40 18.3123 39.7888 16.7089 39.4087 15.1477ZM21.0349 35.3166C21.1193 35.2744 21.2038 35.19 21.2883 35.1478C21.3728 35.1056 21.4995 35.1478 21.584 35.19C21.7529 35.1478 21.8796 35.1478 22.0063 35.2322C22.0908 35.2744 22.2175 35.3588 22.2598 35.4432C22.302 35.5276 22.2598 35.5697 22.1753 35.6541C22.0908 35.7385 22.0486 35.7385 21.9219 35.7385C21.7107 35.7807 21.4995 35.8229 21.246 35.7807C21.1193 35.7807 20.9081 35.7385 20.8237 35.6541C20.8237 35.4854 20.9504 35.401 21.0349 35.3166ZM22.3443 37.9326C22.2175 38.1014 22.0908 38.2702 21.9219 38.3546C21.7529 38.4812 21.584 38.5233 21.4572 38.6499C21.0349 38.8609 20.6125 39.1141 20.1901 39.2407C20.0211 39.2829 19.8099 39.2828 19.641 39.2828C19.4298 39.325 19.1764 39.325 18.9652 39.325C18.7117 39.325 18.4161 39.3672 18.1626 39.4094C17.9092 39.4094 17.6135 39.4516 17.3601 39.4516C16.8955 39.4938 16.5153 39.4094 16.0929 39.2407C15.7128 39.1141 15.3326 38.9031 14.9947 38.6921C14.7413 38.5233 14.5301 38.3124 14.3612 38.1014C14.15 37.9326 14.0232 37.7217 13.8965 37.4685C13.8543 37.3841 13.812 37.2997 13.8543 37.1731C13.8543 37.1309 13.8965 37.0887 13.8965 37.0887C13.981 37.0465 14.0655 36.9622 14.1077 36.9622C14.2344 36.8778 14.4034 36.8778 14.5723 36.8356C14.9525 36.7934 15.3326 36.8356 15.7128 36.8778C15.924 36.8778 16.1352 36.92 16.3464 36.8778C16.642 36.8356 16.9377 36.7512 17.1911 36.6668C17.867 36.498 18.5428 36.3292 19.2186 36.2871C19.8944 36.2027 20.6547 36.1183 21.3305 36.2449C21.584 36.2871 21.9219 36.3714 22.1331 36.498C22.302 36.6246 22.4287 36.7934 22.5132 36.9622C22.6399 37.2997 22.5555 37.6373 22.3443 37.9326ZM27.6663 36.2027C27.5396 36.3293 27.3707 36.4136 27.2017 36.5402C26.9905 36.709 26.7793 36.7934 26.5681 36.92C26.3992 37.0466 26.188 37.1309 26.019 37.2153C25.8078 37.2997 25.6389 37.3841 25.4277 37.5107C25.2165 37.5951 25.0053 37.6795 24.7941 37.7639C24.6251 37.806 24.4562 37.8904 24.2872 37.8482C24.1605 37.806 23.9916 37.7639 23.9071 37.6795C23.7381 37.5107 23.7804 37.3419 23.8226 37.2575C23.8226 37.1309 23.7804 36.92 23.8226 36.7512C23.8648 36.6668 23.9493 36.5402 23.9916 36.4558C24.1605 36.1183 24.414 35.9073 24.6674 35.6541C24.8786 35.4432 25.132 35.2744 25.4277 35.1478C25.7656 35.0212 26.188 34.979 26.5259 34.9368C26.906 34.8946 27.5818 34.8524 27.793 35.3166C27.9198 35.6119 27.8775 35.9073 27.6663 36.2027ZM21.8374 35.2322C21.7952 35.2322 21.7107 35.19 21.6262 35.1478C21.584 35.1478 21.4995 35.19 21.4572 35.19L21.8374 35.2322Z" fill="url(#paint3_linear_25_584)" fill-opacity="0.5"/>
<path opacity="0.4" fill-rule="evenodd" clip-rule="evenodd" d="M37.8038 10.8861V10.9705C37.7616 11.519 37.5504 11.8987 37.3392 12.4051C37.1703 12.827 37.0013 13.1646 36.7901 13.5443C36.4522 14.1772 36.2833 14.7679 36.0298 15.4852C35.6074 16.5401 35.4385 17.6793 34.8049 18.6498C34.2558 19.5359 34.0868 20.5908 33.6645 21.519C33.1576 22.5739 32.3551 23.2912 31.5103 24.0507C31.1301 24.3882 30.7922 24.8102 30.4543 25.1899C30.0742 25.5697 29.8207 26.076 29.3561 26.4136C28.4269 27.0887 27.3709 27.6794 26.4416 28.3967C25.8925 28.8186 25.5124 29.4094 24.8788 29.7469C24.2875 30.1267 23.6117 30.3798 23.0203 30.7174C22.4712 31.0549 21.9221 31.3925 21.3308 31.6457C20.655 31.8988 20.1059 31.8144 19.3878 31.8566C18.6275 31.8988 17.825 32.1098 17.1069 32.363C16.5156 32.5739 16.0087 32.7849 15.3751 32.5739C14.9527 32.4474 14.6148 32.152 14.1924 32.0676C13.1787 31.8566 12.0805 32.0676 11.0668 32.0254C10.2642 31.9832 9.41947 31.8144 8.61694 31.6457C7.85664 31.5191 7.22306 30.9706 6.505 30.7596C5.57575 30.5064 4.51978 30.7174 3.67501 30.3798C3.29486 30.2533 2.95696 29.9579 2.66128 29.7469C2.57681 29.7047 2.53457 29.6625 2.45009 29.6203C2.32338 29.4094 2.19666 29.1562 2.06995 28.9452C2.28114 29.0296 2.49233 29.114 2.70353 29.2406C3.84397 29.7891 5.28008 29.7047 6.505 29.9157C7.89888 30.1689 9.29275 30.5064 10.6866 30.6752C11.278 30.7596 11.8271 30.7174 12.4184 30.6752C13.221 30.5908 14.0235 30.5908 14.826 30.4642C16.1776 30.2111 17.5293 29.5781 18.9232 29.7469C19.1766 29.7891 19.4723 29.9157 19.7257 29.9157C20.1058 29.9157 20.4015 29.5781 20.6972 29.3672C21.2463 29.0296 21.8376 29.0718 22.3445 28.6077C22.8091 28.1435 23.3582 27.8482 23.9496 27.5528C25.4702 26.7933 26.6951 25.5275 27.92 24.3039C28.9337 23.2912 29.9052 22.2363 30.581 21.0127C31.2569 19.7891 31.1301 18.3123 31.637 17.0464C32.0172 16.1182 32.3128 15.2743 32.9042 14.4726C33.1998 14.0928 33.5377 13.7553 33.8334 13.3755C34.1713 12.9958 34.3403 12.5738 34.5937 12.1097C34.8471 11.6034 35.2273 11.1814 35.4385 10.6329C35.6497 10.1266 35.6074 9.70462 35.6074 9.1561C35.6074 8.60757 35.6074 8.01685 35.6074 7.42613C36.4944 8.64977 37.2125 9.74682 37.8038 10.8861Z" fill="url(#paint4_linear_25_584)" fill-opacity="0.5"/>
<path opacity="0.4" fill-rule="evenodd" clip-rule="evenodd" d="M34.6357 6.37135C34.4245 6.16038 34.2133 5.90722 34.0021 5.69625C32.4815 4.17725 30.7075 2.95361 28.7645 1.98315C28.7223 1.94095 28.68 1.94095 28.5956 1.89876C28.2999 1.77217 28.0042 1.64559 27.7085 1.51901C27.2862 1.35023 26.906 1.18145 26.4836 1.05487C26.6103 1.13926 26.7793 1.22365 26.8215 1.22365C27.075 1.35023 27.2862 1.43462 27.4551 1.64559C27.6241 1.85656 27.7085 2.02534 27.7085 2.3207C27.7085 2.57387 27.7508 2.86923 27.793 3.12239C27.8353 3.37556 27.962 3.58653 28.0042 3.8397C28.0465 3.96628 28.0465 4.09286 28.0887 4.26164C28.1732 4.59919 28.2999 4.93675 28.3844 5.2743C28.5111 5.90722 28.1732 6.41355 27.962 6.96207C27.6241 7.84816 27.4129 8.73423 27.1172 9.66251C26.906 10.3798 26.5259 11.0971 25.9768 11.6456C25.4277 12.152 24.6251 12.2786 24.1605 12.8271C23.7381 13.3334 23.2312 13.7976 22.6399 14.0507C21.9641 14.3883 21.2038 14.6414 20.4857 14.8524C19.9789 15.0212 19.4298 15.0212 18.8807 15.1478C18.2049 15.3165 17.6135 15.6541 17.0222 15.9073C16.3464 16.2026 15.755 16.5402 15.0792 16.8355C14.4034 17.1309 13.812 17.5107 13.1362 17.7638C12.7983 17.8904 12.4604 17.9748 12.1647 18.0592C11.4889 18.3123 10.8553 18.7343 10.1373 18.8187C9.88384 18.8609 9.6304 18.9031 9.37697 18.9031C9.16578 18.9031 8.99683 18.9453 8.82788 18.9875C8.1943 19.2406 7.81415 19.9157 7.09609 19.9579C6.42027 19.9579 5.78669 19.9157 5.15311 20.0001C4.8152 20.0423 4.51954 20.0001 4.22387 20.0423C4.13939 20.0423 4.01267 20.0845 3.92819 20.0423C3.84371 20.0001 3.717 19.9157 3.59029 19.8313C3.33685 19.7048 3.12566 19.536 2.91446 19.3672C2.49208 19.0296 1.94298 19.2406 1.47835 19.114C1.35164 19.0718 1.14044 19.114 1.01373 19.0296C0.718054 18.8609 0.337901 18.4811 0.0844696 18.2701C0.0422309 18.8187 0 19.3672 0 19.9157C0 20.8862 0.0844773 21.8145 0.211193 22.7427C0.253432 23.1647 0.337909 23.5866 0.422386 24.0508C0.549102 24.6415 0.718047 25.2744 0.887001 25.8229C1.14043 26.6246 1.43611 27.4263 1.77402 28.1858C2.32312 28.2702 2.87222 28.3546 3.42132 28.2702C4.22385 28.1436 4.98415 28.017 5.78669 28.0592C6.54698 28.1014 7.2228 28.3546 7.94086 28.4812C8.74339 28.6078 9.58817 28.7343 10.4329 28.7765C11.1932 28.8187 11.9535 28.9031 12.6716 28.9875C13.2207 29.0719 13.812 29.1563 14.3611 29.1985C15.8395 29.2829 17.2756 28.9031 18.7117 28.7765C19.4298 28.6921 20.1478 28.5234 20.8659 28.3546C21.2883 28.2702 21.7107 28.1436 22.0908 27.8904C22.5977 27.5529 22.9356 27.0888 23.358 26.709C23.8648 26.2871 24.3717 25.8651 24.8786 25.4854C25.3009 25.1478 25.7233 24.7681 26.188 24.4727C26.5259 24.2617 26.906 24.0086 27.2439 23.7554C27.8775 23.2491 28.4266 22.6584 28.9757 22.0254C29.736 21.1394 30.0317 19.9157 30.3273 18.8187C30.623 17.806 30.792 16.8355 31.3411 15.9073C31.5945 15.4853 31.8057 14.979 31.9324 14.4727C32.0169 14.1773 32.0591 13.7976 32.1858 13.5022C32.397 13.0381 32.8617 12.6583 33.1151 12.2364C33.3263 11.8988 33.5797 11.5613 33.7064 11.1393C34.0021 10.3798 34.2133 9.62031 34.34 8.77643C34.4245 8.18571 34.6357 7.59499 34.8046 7.00427C34.8469 6.91988 34.8469 6.79329 34.8891 6.70891C34.8891 6.66671 34.7624 6.49794 34.6357 6.37135ZM8.57444 20.0423C8.61668 19.9579 9.37698 19.6626 9.46146 19.6204C9.46146 19.6204 9.46145 19.6204 9.41921 19.6204L8.91234 19.8313C9.46145 19.6626 10.4329 20.2111 9.96831 20.8018C9.84159 20.9706 9.46146 21.055 9.25026 21.0972C9.03907 21.1394 8.91235 21.055 8.78563 20.8862C8.65892 20.7174 8.57444 20.4643 8.57444 20.2533C8.57444 20.2111 8.57444 20.0845 8.57444 20.0423ZM2.61879 25.401C2.02745 25.2322 1.6473 25.0212 1.30939 24.5149C1.05596 24.1774 0.887009 23.882 0.802532 23.5022C0.760293 23.1647 0.633572 22.9115 0.718049 22.574C0.760288 22.3208 0.887009 22.0254 1.01373 21.8145C1.14044 21.5613 1.35163 21.2659 1.35163 21.1816C1.94297 21.1394 2.49207 21.0972 3.04118 21.0972C3.67475 21.0972 4.35058 21.1816 4.98416 21.1816C5.27983 21.1816 5.5755 21.1816 5.87117 21.1394C6.16684 21.0972 6.42027 21.0128 6.71594 20.9706C7.22281 20.8862 7.68743 20.844 8.15205 21.055C8.48996 21.2237 8.65892 21.6457 8.82788 21.9832C8.91235 22.1942 8.99683 22.3208 8.99683 22.574C8.99683 22.8693 8.99682 23.1225 8.95459 23.3757C8.95459 23.46 8.91234 23.5866 8.91234 23.671C8.48996 24.5571 7.39176 24.8525 6.54699 25.19C5.27983 25.6963 3.88595 25.7385 2.61879 25.401ZM11.6156 27.3419C11.3622 28.017 10.264 28.228 9.63041 28.2702C9.33474 28.2702 8.95459 28.228 8.65892 28.0592C8.48997 27.9748 8.36325 27.8061 8.23654 27.6373C8.15206 27.5107 8.02534 27.2997 7.68743 27.3841C7.7719 27.0044 7.85639 26.6668 8.02534 26.3293C8.15206 26.1605 8.321 26.0339 8.48996 25.8651C8.78563 25.612 9.12355 25.3588 9.46146 25.19C10.0106 24.8947 10.6019 25.1056 11.1088 25.3588C11.4889 25.5276 11.7423 25.7807 11.8268 26.1605C11.9535 26.6246 11.7846 26.92 11.6156 27.3419ZM19.0496 27.2153C18.8384 27.6795 18.5428 27.8061 18.1204 28.0592C17.6135 28.3124 16.9377 28.5234 16.3886 28.5234C16.0929 28.5234 15.7972 28.3968 15.5438 28.2702C15.3749 28.1858 15.1637 28.1436 15.0369 28.017C14.6568 27.6373 14.5723 27.131 14.8258 27.2153C14.6568 26.8778 14.5723 26.5402 14.5301 26.2027C14.6146 26.1605 14.6568 26.0761 14.6568 25.9917C14.868 25.612 15.2481 25.2744 15.6705 25.0634C16.3463 24.6837 17.2334 24.5993 17.9937 24.9368C18.3316 25.0634 18.5428 25.2322 18.754 25.4854C18.8807 25.612 19.0074 25.6963 19.1341 25.8651C19.2608 26.2027 19.1763 26.8356 19.0496 27.2153ZM21.2883 27.131C21.1616 27.2153 20.9504 27.3841 20.8236 27.3841C20.6969 27.3419 20.4857 27.1309 20.4857 26.9622L20.4013 26.8778C20.5702 26.5824 20.7392 26.3293 20.9081 26.0339C21.1616 26.1605 21.415 26.1183 21.5839 26.4136C21.7951 26.709 21.4995 26.9622 21.2883 27.131ZM26.9905 13.8397C26.7793 14.1351 26.4836 14.4305 26.1457 14.557C25.7233 14.7258 25.132 14.8946 25.0898 14.2195C25.0898 13.8397 25.132 13.5444 25.3009 13.2068C25.5544 12.7005 25.7656 12.5739 26.2724 12.3208C26.4414 12.3208 26.6526 12.4051 26.7793 12.4473C27.0327 12.5317 27.2862 12.7849 27.3284 13.0802C27.3706 13.3756 27.1594 13.6288 26.9905 13.8397ZM32.2703 11.0127C32.0591 11.6878 31.7635 12.3208 31.4678 12.9115C31.1299 13.671 31.0876 14.4727 30.8764 15.2744C30.792 15.7385 30.5385 16.2448 30.1162 16.4136C29.905 16.498 29.736 16.4558 29.5248 16.4558C29.3136 16.4558 28.9757 16.5402 28.9757 16.709C28.849 16.3714 28.68 15.9495 28.5956 15.6119C28.5111 15.2322 28.4688 14.8102 28.4266 14.3883C28.3421 13.9663 28.3421 13.5444 28.2999 13.1224C28.2577 12.7427 28.1732 12.3207 28.1732 11.941C28.1732 10.633 28.9335 8.9874 30.1584 8.39668C30.5385 8.2279 30.9187 8.14351 31.3411 8.18571C31.8057 8.2701 32.1014 8.39668 32.3126 8.86082C32.566 9.49373 32.4393 10.3376 32.2703 11.0127Z" fill="url(#paint5_linear_25_584)" fill-opacity="0.5"/>
<path opacity="0.4" fill-rule="evenodd" clip-rule="evenodd" d="M26.4413 12.2363C26.3991 12.2785 26.3146 12.2785 26.2723 12.3207C26.1456 12.3207 26.0612 12.2785 25.9767 12.3207L26.4413 12.2363Z" fill="url(#paint6_linear_25_584)" fill-opacity="0.5"/>
<path opacity="0.4" fill-rule="evenodd" clip-rule="evenodd" d="M1.30957 21.1816C1.26733 21.1816 1.2251 21.1816 1.2251 21.1816C1.30957 21.1393 1.30957 21.1393 1.30957 21.1816Z" fill="url(#paint7_linear_25_584)" fill-opacity="0.5"/>
<path opacity="0.3" fill-rule="evenodd" clip-rule="evenodd" d="M8.5745 36.4559C8.5745 36.4559 10.3908 37.131 11.7002 36.7512C11.7002 36.7512 12.207 32.4896 10.602 29.747C8.99689 27.0044 6.25138 31.1394 6.25138 31.1394L5.6178 33.7554C5.6178 33.7554 7.13839 35.5698 8.5745 36.4559Z" fill="black" fill-opacity="0.5"/>
<path fill-rule="evenodd" clip-rule="evenodd" d="M4.13953 37.3843C4.18177 37.4265 4.22401 37.4688 4.22401 37.5533C4.13953 37.5533 4.13953 37.511 4.13953 37.4265C4.13953 37.3421 4.18177 37.3843 4.22401 37.2998C4.22401 37.2998 4.224 37.2998 4.26624 37.2998L4.13953 37.3843Z" fill="#0EDBFF"/>
<defs>
<radialGradient id="paint0_radial_25_584" cx="0" cy="0" r="1" gradientUnits="userSpaceOnUse" gradientTransform="translate(7.58074 10.6353) scale(32.1442 32.1105)">
<stop offset="0.00558659" stop-color="#B1B8BE"/>
<stop offset="0.0937306" stop-color="#C0C8CB"/>
<stop offset="0.211" stop-color="#C0CAC9"/>
<stop offset="0.3446" stop-color="#B7C0C7"/>
<stop offset="0.4903" stop-color="#BCC6C7"/>
<stop offset="0.6442" stop-color="#959EA3"/>
<stop offset="0.6844" stop-color="#4C535D"/>
<stop offset="0.7432" stop-color="#636A74"/>
<stop offset="0.8282" stop-color="#3C4451"/>
<stop offset="0.9287" stop-color="#2E353F"/>
<stop offset="1" stop-color="#283039"/>
</radialGradient>
<linearGradient id="paint1_linear_25_584" x1="-0.0372545" y1="14.5015" x2="28.7483" y2="14.5015" gradientUnits="userSpaceOnUse">
<stop offset="0.0111732" stop-color="#001218"/>
<stop offset="0.3224"/>
<stop offset="0.5506"/>
<stop offset="0.7523"/>
<stop offset="0.9375"/>
<stop offset="1"/>
</linearGradient>
<linearGradient id="paint2_linear_25_584" x1="0.145376" y1="8.84312" x2="25.3115" y2="8.84312" gradientUnits="userSpaceOnUse">
<stop stop-color="#B8C2FF"/>
<stop offset="1" stop-color="#7D72B3"/>
</linearGradient>
<linearGradient id="paint3_linear_25_584" x1="4.22975" y1="27.5557" x2="39.9848" y2="27.5557" gradientUnits="userSpaceOnUse">
<stop stop-color="#B8C2FF"/>
<stop offset="1" stop-color="#7D72B3"/>
</linearGradient>
<linearGradient id="paint4_linear_25_584" x1="2.11806" y1="20.1678" x2="37.8013" y2="20.1678" gradientUnits="userSpaceOnUse">
<stop stop-color="#B8C2FF"/>
<stop offset="1" stop-color="#7D72B3"/>
</linearGradient>
<linearGradient id="paint5_linear_25_584" x1="-0.0363675" y1="15.1865" x2="35.0386" y2="15.1865" gradientUnits="userSpaceOnUse">
<stop stop-color="#B8C2FF"/>
<stop offset="1" stop-color="#7D72B3"/>
</linearGradient>
<linearGradient id="paint6_linear_25_584" x1="25.9488" y1="12.2983" x2="26.4303" y2="12.2983" gradientUnits="userSpaceOnUse">
<stop stop-color="#E8DDFF"/>
<stop offset="1" stop-color="#AA8AD8"/>
</linearGradient>
<linearGradient id="paint7_linear_25_584" x1="1.2183" y1="21.186" x2="1.31827" y2="21.186" gradientUnits="userSpaceOnUse">
<stop stop-color="#E8DDFF"/>
<stop offset="1" stop-color="#AA8AD8"/>
</linearGradient>
</defs>
</svg>
